<svg width="72" height="72" viewBox="0 0 72 72" fill="none" xmlns="http://www.w3.org/2000/svg">
<rect width="72" height="72" fill="white"/>
<path d="M24.8014 43.2176C22.284 43.7207 19.3808 40.3729 17.5079 35.2453C17.3657 34.8513 17.3499 34.4231 17.4629 34.021C17.576 33.619 17.812 33.2615 18.1383 32.9988L21.2961 30.453C21.4292 30.346 21.5329 30.2066 21.5973 30.049C21.6618 29.8894 21.685 29.7177 21.6648 29.548C21.6446 29.3783 21.5818 29.2167 21.482 29.0773C21.3821 28.9379 21.2486 28.8266 21.094 28.7539L16.7664 26.7335C16.4238 26.5739 16.1331 26.3235 15.9276 26.0063C15.7221 25.6891 15.61 25.3214 15.6047 24.9436C15.5401 19.923 16.9119 16.1328 19.2959 15.65C22.5164 15.0055 26.3672 20.6524 27.8845 28.261C29.4018 35.8697 28.0239 42.5711 24.8014 43.2176Z" fill="black"/>
<path d="M49.5304 43.2176C47.013 43.7207 44.1098 40.3729 42.2369 35.2453C42.0947 34.8513 42.0789 34.4231 42.1919 34.021C42.3048 33.619 42.5412 33.2615 42.8673 32.9988L46.0251 30.453C46.1582 30.346 46.2619 30.2066 46.3263 30.049C46.3908 29.8894 46.414 29.7177 46.3938 29.548C46.3736 29.3783 46.3108 29.2167 46.211 29.0773C46.1109 28.9379 45.9776 28.8266 45.823 28.7539L41.4954 26.7335C41.153 26.5739 40.8621 26.3235 40.6566 26.0063C40.4511 25.6891 40.3392 25.3214 40.3337 24.9436C40.2691 19.923 41.6409 16.1328 44.0249 15.65C47.2454 15.0055 51.0962 20.6524 52.6135 28.261C54.1307 35.8697 52.7529 42.5711 49.5304 43.2176Z" fill="black"/>
<path d="M34.0405 41.9105C34.0405 41.9105 38.2328 37.4193 39.7177 43.2662" stroke="black" stroke-width="1.77972" stroke-linecap="round" stroke-linejoin="round"/>
<path d="M18.106 42.5571C18.106 42.5571 20.4455 47.503 15.4795 50.3073" stroke="black" stroke-width="1.77972" stroke-linecap="round" stroke-linejoin="round"/>
<path d="M53.5752 41.8303C53.5752 41.8303 51.2356 46.7762 56.2017 49.5805" stroke="black" stroke-width="1.77972" stroke-linecap="round" stroke-linejoin="round"/>
<path d="M53.3476 46.7936C53.7251 46.4789 53.776 45.9178 53.4613 45.5403C53.1466 45.1628 52.5855 45.1119 52.208 45.4266L53.3476 46.7936ZM18.3096 47.206C17.7278 47.8794 17.7282 47.8797 17.7287 47.8801C17.7289 47.8803 17.7294 47.8808 17.7299 47.8812C17.7309 47.8821 17.7321 47.8831 17.7336 47.8844C17.7366 47.8869 17.7405 47.8903 17.7454 47.8945C17.7553 47.9029 17.7691 47.9145 17.7869 47.9293C17.8223 47.9589 17.8734 48.0009 17.9396 48.0541C18.0721 48.1605 18.2653 48.3116 18.5159 48.4966C19.0168 48.8666 19.7479 49.3734 20.6809 49.9309C22.5448 51.0448 25.2277 52.3693 28.5023 53.2063C35.0885 54.8897 44.0079 54.5793 53.3476 46.7936L52.208 45.4266C43.3585 52.8037 35.0437 53.0413 28.9431 51.482C25.8743 50.6976 23.3507 49.4531 21.5938 48.4032C20.7165 47.8789 20.0337 47.4051 19.5733 47.0651C19.3432 46.8951 19.1689 46.7588 19.0541 46.6665C18.9966 46.6204 18.9541 46.5853 18.9268 46.5626C18.9132 46.5512 18.9034 46.5429 18.8974 46.5379C18.8945 46.5354 18.8925 46.5337 18.8915 46.5328C18.891 46.5324 18.8907 46.5322 18.8907 46.5321C18.8907 46.5321 18.8909 46.5323 18.8909 46.5323C18.8911 46.5325 18.8914 46.5327 18.3096 47.206Z" fill="black"/>
<path d="M31.9092 55.5241C31.9092 55.5241 35.162 57.7296 40.8776 55.2917" stroke="black" stroke-width="1.66026" stroke-miterlimit="10" stroke-linecap="round"/>
<path d="M58.1554 45.515C58.7245 45.515 59.1858 45.0544 59.1858 44.4846C59.1858 43.9149 58.7245 43.4543 58.1554 43.4543C57.5863 43.4543 57.125 43.9149 57.125 44.4846C57.125 45.0544 57.5863 45.515 58.1554 45.515Z" fill="black"/>
<path d="M13.8937 45.9756C14.4628 45.9756 14.924 45.515 14.924 44.9453C14.924 44.3756 14.4628 43.9148 13.8937 43.9148C13.3245 43.9148 12.8633 44.3756 12.8633 44.9453C12.8633 45.515 13.3245 45.9756 13.8937 45.9756Z" fill="black"/>
<path d="M12.5475 41.8621C13.1166 41.8621 13.5779 41.4016 13.5779 40.8318C13.5779 40.2621 13.1166 39.8015 12.5475 39.8015C11.9783 39.8015 11.5171 40.2621 11.5171 40.8318C11.5171 41.4016 11.9783 41.8621 12.5475 41.8621Z" fill="black"/>
<path d="M9.43077 44.8482C9.9999 44.8482 10.4612 44.3876 10.4612 43.8179C10.4612 43.2481 9.9999 42.7874 9.43077 42.7874C8.86163 42.7874 8.40039 43.2481 8.40039 43.8179C8.40039 44.3876 8.86163 44.8482 9.43077 44.8482Z" fill="black"/>
<path d="M61.214 42.535C61.7831 42.535 62.2444 42.0744 62.2444 41.5047C62.2444 40.9349 61.7831 40.4744 61.214 40.4744C60.6448 40.4744 60.1836 40.9349 60.1836 41.5047C60.1836 42.0744 60.6448 42.535 61.214 42.535Z" fill="black"/>
<path d="M62.5699 46.6382C63.1391 46.6382 63.6003 46.1774 63.6003 45.6077C63.6003 45.038 63.1391 44.5774 62.5699 44.5774C62.0008 44.5774 61.5396 45.038 61.5396 45.6077C61.5396 46.1774 62.0008 46.6382 62.5699 46.6382Z" fill="black"/>
</svg>
