<svg width="35" height="34" viewBox="0 0 35 34" fill="none" xmlns="http://www.w3.org/2000/svg">
<mask id="path-1-inside-1_11224_637256" fill="white">
<path fill-rule="evenodd" clip-rule="evenodd" d="M8.00559 3.94141C8.27728 3.94141 8.49752 4.16165 8.49752 4.43333V29.5648C8.49752 29.8365 8.27728 30.0567 8.00559 30.0567C7.73391 30.0567 7.51367 29.8365 7.51367 29.5648V4.43333C7.51367 4.16165 7.73391 3.94141 8.00559 3.94141Z"/>
</mask>
<path d="M9.49752 4.43333C9.49752 3.60936 8.82956 2.94141 8.00559 2.94141V4.94141C7.72499 4.94141 7.49752 4.71393 7.49752 4.43333H9.49752ZM9.49752 29.5648V4.43333H7.49752V29.5648H9.49752ZM8.00559 31.0567C8.82956 31.0567 9.49752 30.3888 9.49752 29.5648H7.49752C7.49752 29.2842 7.72499 29.0567 8.00559 29.0567V31.0567ZM6.51367 29.5648C6.51367 30.3888 7.18163 31.0567 8.00559 31.0567V29.0567C8.2862 29.0567 8.51367 29.2842 8.51367 29.5648H6.51367ZM6.51367 4.43333V29.5648H8.51367V4.43333H6.51367ZM8.00559 2.94141C7.18163 2.94141 6.51367 3.60936 6.51367 4.43333H8.51367C8.51367 4.71393 8.2862 4.94141 8.00559 4.94141V2.94141Z" fill="url(#paint0_radial_11224_637256)" mask="url(#path-1-inside-1_11224_637256)"/>
<mask id="path-3-inside-2_11224_637256" fill="white">
<path fill-rule="evenodd" clip-rule="evenodd" d="M17.697 3.89844C17.9687 3.89844 18.1889 4.11868 18.1889 4.39036V29.6107C18.1889 29.8824 17.9687 30.1026 17.697 30.1026C17.4253 30.1026 17.2051 29.8824 17.2051 29.6107V4.39036C17.2051 4.11868 17.4253 3.89844 17.697 3.89844Z"/>
</mask>
<path d="M19.1889 4.39036C19.1889 3.56639 18.521 2.89844 17.697 2.89844V4.89844C17.4164 4.89844 17.1889 4.67096 17.1889 4.39036H19.1889ZM19.1889 29.6107V4.39036H17.1889V29.6107H19.1889ZM17.697 31.1026C18.521 31.1026 19.1889 30.4347 19.1889 29.6107H17.1889C17.1889 29.3301 17.4164 29.1026 17.697 29.1026V31.1026ZM16.2051 29.6107C16.2051 30.4347 16.873 31.1026 17.697 31.1026V29.1026C17.9776 29.1026 18.2051 29.3301 18.2051 29.6107H16.2051ZM16.2051 4.39036V29.6107H18.2051V4.39036H16.2051ZM17.697 2.89844C16.873 2.89844 16.2051 3.56639 16.2051 4.39036H18.2051C18.2051 4.67096 17.9776 4.89844 17.697 4.89844V2.89844Z" fill="url(#paint1_radial_11224_637256)" mask="url(#path-3-inside-2_11224_637256)"/>
<mask id="path-5-inside-3_11224_637256" fill="white">
<path fill-rule="evenodd" clip-rule="evenodd" d="M27.3874 3.89844C27.6591 3.89844 27.8794 4.11868 27.8794 4.39036V29.6107C27.8794 29.8824 27.6591 30.1026 27.3874 30.1026C27.1157 30.1026 26.8955 29.8824 26.8955 29.6107V4.39036C26.8955 4.11868 27.1157 3.89844 27.3874 3.89844Z"/>
</mask>
<path d="M28.8794 4.39036C28.8794 3.56639 28.2114 2.89844 27.3874 2.89844V4.89844C27.1068 4.89844 26.8794 4.67096 26.8794 4.39036H28.8794ZM28.8794 29.6107V4.39036H26.8794V29.6107H28.8794ZM27.3874 31.1026C28.2114 31.1026 28.8794 30.4347 28.8794 29.6107H26.8794C26.8794 29.3301 27.1068 29.1026 27.3874 29.1026V31.1026ZM25.8955 29.6107C25.8955 30.4347 26.5635 31.1026 27.3874 31.1026V29.1026C27.668 29.1026 27.8955 29.3301 27.8955 29.6107H25.8955ZM25.8955 4.39036V29.6107H27.8955V4.39036H25.8955ZM27.3874 2.89844C26.5635 2.89844 25.8955 3.56639 25.8955 4.39036H27.8955C27.8955 4.67096 27.668 4.89844 27.3874 4.89844V2.89844Z" fill="url(#paint2_radial_11224_637256)" mask="url(#path-5-inside-3_11224_637256)"/>
<defs>
<radialGradient id="paint0_radial_11224_637256" cx="0" cy="0" r="1" gradientUnits="userSpaceOnUse" gradientTransform="translate(7.61309 11.3168) rotate(86.9392) scale(16.2822 1.74173)">
<stop offset="0.0760668"/>
<stop offset="0.380208" stop-color="#42D2FF"/>
<stop offset="0.666667" stop-color="#939393"/>
<stop offset="1"/>
</radialGradient>
<radialGradient id="paint1_radial_11224_637256" cx="0" cy="0" r="1" gradientUnits="userSpaceOnUse" gradientTransform="translate(17.3045 11.2989) rotate(86.9496) scale(16.3375 1.74175)">
<stop offset="0.0760668"/>
<stop offset="0.380208" stop-color="#42D2FF"/>
<stop offset="0.666667" stop-color="#939393"/>
<stop offset="1"/>
</radialGradient>
<radialGradient id="paint2_radial_11224_637256" cx="0" cy="0" r="1" gradientUnits="userSpaceOnUse" gradientTransform="translate(26.9949 11.2989) rotate(86.9496) scale(16.3375 1.74175)">
<stop offset="0.0760668"/>
<stop offset="0.380208" stop-color="#42D2FF"/>
<stop offset="0.666667" stop-color="#939393"/>
<stop offset="1"/>
</radialGradient>
</defs>
</svg>
