<?xml version='1.0' encoding='utf-8'?>
<svg fill="none" height="34" viewBox="0 0 35 34" width="35">
<path clip-rule="evenodd" d="M21.7829 3.86979H29.5225C30.5911 3.86979 31.4574 4.73607 31.4574 5.80468V13.5443C31.4574 14.6129 30.5911 15.4792 29.5225 15.4792H21.7829C20.7143 15.4792 19.848 14.6129 19.848 13.5443V5.80469C19.848 4.73607 20.7143 3.86979 21.7829 3.86979ZM18.8806 5.80469C18.8806 4.20177 20.18 2.90234 21.7829 2.90234H29.5225C31.1254 2.90234 32.4248 4.20177 32.4248 5.80468V13.5443C32.4248 15.1472 31.1254 16.4466 29.5225 16.4466H21.7829C20.18 16.4466 18.8806 15.1472 18.8806 13.5443V5.80469ZM6.30468 19.3508H14.0443C15.1129 19.3508 15.9792 20.2171 15.9792 21.2857V29.0253C15.9792 30.0939 15.1129 30.9602 14.0443 30.9602H6.30469C5.23607 30.9602 4.36979 30.0939 4.36979 29.0253V21.2857C4.36979 20.2171 5.23607 19.3508 6.30468 19.3508ZM3.40234 21.2857C3.40234 19.6828 4.70177 18.3834 6.30468 18.3834H14.0443C15.6472 18.3834 16.9466 19.6828 16.9466 21.2857V29.0253C16.9466 30.6282 15.6472 31.9277 14.0443 31.9277H6.30469C4.70177 31.9277 3.40234 30.6282 3.40234 29.0253V21.2857Z" fill="url(#paint0_radial_11224_637254)" fill-rule="evenodd" />
<defs>
<radialGradient cx="0" cy="0" gradientTransform="translate(6.3351 11.0995) rotate(35.169) scale(31.3733 29.6363)" gradientUnits="userSpaceOnUse" id="paint0_radial_11224_637254" r="1">
<stop offset="0.0760668" />
<stop offset="0.380208" stop-color="#42D2FF" />
<stop offset="0.666667" stop-color="#939393" />
<stop offset="1" />
</radialGradient>
</defs>
</svg>