<svg width="35" height="34" viewBox="0 0 35 34" fill="none" xmlns="http://www.w3.org/2000/svg">
<path d="M27.4167 15.582H7.58333C6.01853 15.582 4.75 16.8506 4.75 18.4154V28.332C4.75 29.8968 6.01853 31.1654 7.58333 31.1654H27.4167C28.9815 31.1654 30.25 29.8968 30.25 28.332V18.4154C30.25 16.8506 28.9815 15.582 27.4167 15.582Z" stroke="url(#paint0_radial_11224_637247)" stroke-linecap="round" stroke-linejoin="round"/>
<path d="M10.417 15.5859V9.91927C10.417 8.04065 11.1633 6.23898 12.4917 4.9106C13.82 3.58222 15.6217 2.83594 17.5003 2.83594C19.3789 2.83594 21.1806 3.58222 22.509 4.9106C23.8374 6.23898 24.5837 8.04065 24.5837 9.91927V15.5859" stroke="url(#paint1_radial_11224_637247)" stroke-linecap="round" stroke-linejoin="round"/>
<defs>
<radialGradient id="paint0_radial_11224_637247" cx="0" cy="0" r="1" gradientUnits="userSpaceOnUse" gradientTransform="translate(7.32681 19.983) rotate(23.2945) scale(24.5335 17.8778)">
<stop offset="0.0760668"/>
<stop offset="0.380208" stop-color="#42D2FF"/>
<stop offset="0.666667" stop-color="#939393"/>
<stop offset="1"/>
</radialGradient>
<radialGradient id="paint1_radial_11224_637247" cx="0" cy="0" r="1" gradientUnits="userSpaceOnUse" gradientTransform="translate(11.8486 6.43674) rotate(32.3783) scale(14.8232 13.4496)">
<stop offset="0.0760668"/>
<stop offset="0.380208" stop-color="#42D2FF"/>
<stop offset="0.666667" stop-color="#939393"/>
<stop offset="1"/>
</radialGradient>
</defs>
</svg>
