<svg width="47" height="46" viewBox="0 0 47 46" fill="none" xmlns="http://www.w3.org/2000/svg">
<path fill-rule="evenodd" clip-rule="evenodd" d="M5.02832 8.93359C5.02832 6.50225 6.99932 4.53125 9.43066 4.53125H15.2842C15.5604 4.53125 15.7842 4.75511 15.7842 5.03125C15.7842 5.30739 15.5604 5.53125 15.2842 5.53125H9.43066C7.5516 5.53125 6.02832 7.05453 6.02832 8.93359V14.7871C6.02832 15.0633 5.80446 15.2871 5.52832 15.2871C5.25218 15.2871 5.02832 15.0633 5.02832 14.7871V8.93359ZM5.02832 37.9039C5.02832 40.3353 6.99932 42.3063 9.43066 42.3063H15.2842C15.5604 42.3063 15.7842 42.0824 15.7842 41.8063C15.7842 41.5301 15.5604 41.3063 15.2842 41.3063H9.43066C7.5516 41.3063 6.02832 39.783 6.02832 37.9039V32.0504C6.02832 31.7742 5.80446 31.5504 5.52832 31.5504C5.25218 31.5504 5.02832 31.7742 5.02832 32.0504V37.9039ZM38.3991 42.3063C40.8304 42.3063 42.8014 40.3353 42.8014 37.9039V32.0504C42.8014 31.7742 42.5776 31.5504 42.3014 31.5504C42.0253 31.5504 41.8014 31.7742 41.8014 32.0504V37.9039C41.8014 39.783 40.2781 41.3063 38.3991 41.3063H32.5455C32.2694 41.3063 32.0455 41.5301 32.0455 41.8063C32.0455 42.0824 32.2694 42.3063 32.5455 42.3063H38.3991ZM42.8014 8.93359C42.8014 6.50225 40.8304 4.53125 38.3991 4.53125H32.5455C32.2694 4.53125 32.0455 4.75511 32.0455 5.03125C32.0455 5.30739 32.2694 5.53125 32.5455 5.53125H38.3991C40.2781 5.53125 41.8014 7.05453 41.8014 8.93359V14.7871C41.8014 15.0633 42.0253 15.2871 42.3014 15.2871C42.5776 15.2871 42.8014 15.0633 42.8014 14.7871V8.93359ZM32.6698 23.4149C32.6698 28.2507 28.7496 32.1708 23.9139 32.1708C19.0782 32.1708 15.1581 28.2507 15.1581 23.4149C15.1581 18.5792 19.0782 14.6591 23.9139 14.6591C28.7496 14.6591 32.6698 18.5792 32.6698 23.4149ZM33.6698 23.4149C33.6698 28.803 29.3019 33.1708 23.9139 33.1708C18.5259 33.1708 14.1581 28.803 14.1581 23.4149C14.1581 18.0269 18.5259 13.6591 23.9139 13.6591C29.3019 13.6591 33.6698 18.0269 33.6698 23.4149Z" fill="url(#paint0_radial_11224_637250)"/>
<defs>
<radialGradient id="paint0_radial_11224_637250" cx="0" cy="0" r="1" gradientUnits="userSpaceOnUse" gradientTransform="translate(8.84534 15.1995) rotate(35.1677) scale(40.8321 38.5708)">
<stop offset="0.0760668"/>
<stop offset="0.380208" stop-color="#42D2FF"/>
<stop offset="0.666667" stop-color="#939393"/>
<stop offset="1"/>
</radialGradient>
</defs>
</svg>
