<?xml version='1.0' encoding='utf-8'?>
<svg width="102" height="101" viewBox="0 0 102 101" fill="none">
<path fill-rule="evenodd" clip-rule="evenodd" d="M23.9579 15.4268C19.688 15.4268 16.2266 18.8882 16.2266 23.1581V34.0052C16.2266 34.2813 16.4504 34.5052 16.7266 34.5052C17.0027 34.5052 17.2266 34.2813 17.2266 34.0052V23.1581C17.2266 19.4405 20.2403 16.4268 23.9579 16.4268H34.805C35.0811 16.4268 35.305 16.2029 35.305 15.9268C35.305 15.6506 35.0811 15.4268 34.805 15.4268H23.9579ZM23.9579 84.5735C19.688 84.5735 16.2266 81.112 16.2266 76.8421V65.995C16.2266 65.7189 16.4504 65.495 16.7266 65.495C17.0027 65.495 17.2266 65.7189 17.2266 65.995V76.8421C17.2266 80.5598 20.2403 83.5735 23.9579 83.5735H34.805C35.0811 83.5735 35.305 83.7973 35.305 84.0735C35.305 84.3496 35.0811 84.5735 34.805 84.5735H23.9579ZM85.3706 76.8421C85.3706 81.112 81.9091 84.5735 77.6392 84.5735H66.7921C66.516 84.5735 66.2921 84.3496 66.2921 84.0735C66.2921 83.7973 66.516 83.5735 66.7921 83.5735H77.6392C81.3568 83.5735 84.3706 80.5598 84.3706 76.8421V65.995C84.3706 65.7189 84.5944 65.495 84.8706 65.495C85.1467 65.495 85.3706 65.7189 85.3706 65.995V76.8421ZM77.6392 15.4268C81.9091 15.4268 85.3706 18.8882 85.3706 23.1581V34.0052C85.3706 34.2813 85.1467 34.5052 84.8706 34.5052C84.5944 34.5052 84.3706 34.2813 84.3706 34.0052V23.1581C84.3706 19.4405 81.3568 16.4268 77.6392 16.4268H66.7921C66.516 16.4268 66.2921 16.2029 66.2921 15.9268C66.2921 15.6506 66.516 15.4268 66.7921 15.4268H77.6392Z" fill="url(#paint0_radial_11201_77115)" />
<path d="M16.5 50.5H85.0032" stroke="url(#paint1_radial_11201_77115)" stroke-linecap="round" />
<defs>
<radialGradient id="paint0_radial_11201_77115" cx="0" cy="0" r="1" gradientUnits="userSpaceOnUse" gradientTransform="translate(134.012 -54.3022) rotate(124.443) scale(221.704 200.606)">
<stop offset="0.0760668" />
<stop offset="0.341625" stop-color="#42D2FF" />
<stop offset="0.763097" stop-color="#939393" />
<stop offset="1" />
</radialGradient>
<radialGradient id="paint1_radial_11201_77115" cx="0" cy="0" r="1" gradientUnits="userSpaceOnUse" gradientTransform="translate(133.194 49.4916) rotate(178.781) scale(124.258 5.12836)">
<stop offset="0.0760668" />
<stop offset="0.341625" stop-color="#42D2FF" />
<stop offset="0.763097" stop-color="#939393" />
<stop offset="1" />
</radialGradient>
</defs>
</svg>