<?xml version='1.0' encoding='utf-8'?>
<svg width="102" height="101" viewBox="0 0 102 101" fill="none">
<path fill-rule="evenodd" clip-rule="evenodd" d="M39.3494 17H63.1035C66.2995 17 68.8904 19.5909 68.8904 22.7869V59.3885C68.8904 60.4786 68.669 61.5573 68.2396 62.5592L60.5538 80.4927C59.6419 82.6204 57.5497 84 55.2348 84H51.792H47.2181C44.9032 84 42.811 82.6204 41.8991 80.4927L34.2133 62.5592C33.7839 61.5573 33.5625 60.4786 33.5625 59.3885V22.7869C33.5625 19.5909 36.1534 17 39.3494 17ZM32.5625 22.7869C32.5625 19.0386 35.6011 16 39.3494 16H63.1035C66.8518 16 69.8904 19.0386 69.8904 22.7869V59.3885C69.8904 60.614 69.6414 61.8267 69.1587 62.9531L61.4729 80.8866C60.4035 83.382 57.9497 85 55.2348 85H51.792H47.2181C44.5031 85 42.0494 83.382 40.9799 80.8866L33.2942 62.9531C32.8114 61.8267 32.5625 60.614 32.5625 59.3885V22.7869ZM40 22H63C63.5523 22 64 22.4477 64 23V40C64 40.5523 63.5523 41 63 41H40C39.4477 41 39 40.5523 39 40V23C39 22.4477 39.4477 22 40 22ZM38 23C38 21.8954 38.8954 21 40 21H63C64.1046 21 65 21.8954 65 23V40C65 41.1046 64.1046 42 63 42H40C38.8954 42 38 41.1046 38 40V23ZM48.8689 46H39.1311C39.0587 46 39 46.0587 39 46.1311V49.8689C39 49.9413 39.0587 50 39.1311 50H48.8689C48.9413 50 49 49.9413 49 49.8689V46.1311C49 46.0587 48.9413 46 48.8689 46ZM39.1311 45C38.5064 45 38 45.5064 38 46.1311V49.8689C38 50.4936 38.5064 51 39.1311 51H48.8689C49.4936 51 50 50.4936 50 49.8689V46.1311C50 45.5064 49.4936 45 48.8689 45H39.1311ZM54.1311 46H63.8689C63.9413 46 64 46.0587 64 46.1311V49.8689C64 49.9413 63.9413 50 63.8689 50H54.1311C54.0587 50 54 49.9413 54 49.8689V46.1311C54 46.0587 54.0587 46 54.1311 46ZM53 46.1311C53 45.5064 53.5064 45 54.1311 45H63.8689C64.4936 45 65 45.5064 65 46.1311V49.8689C65 50.4936 64.4936 51 63.8689 51H54.1311C53.5064 51 53 50.4936 53 49.8689V46.1311Z" fill="url(#paint0_radial_11201_197576)" />
<defs>
<radialGradient id="paint0_radial_11201_197576" cx="0" cy="0" r="1" gradientUnits="userSpaceOnUse" gradientTransform="translate(96.15 -53.581) rotate(110.356) scale(194.603 123.119)">
<stop offset="0.0760668" />
<stop offset="0.341625" stop-color="#42D2FF" />
<stop offset="0.763097" stop-color="#939393" />
<stop offset="1" />
</radialGradient>
</defs>
</svg>