<?xml version='1.0' encoding='utf-8'?>
<svg width="18" height="18" viewBox="0 0 18 18" fill="none">
<path fill-rule="evenodd" clip-rule="evenodd" d="M3.94364 3.63405C4.09204 3.48565 4.09204 3.24505 3.94364 3.09665C3.79524 2.94825 3.55464 2.94825 3.40624 3.09665L1.09665 5.40624C0.948252 5.55464 0.948252 5.79524 1.09665 5.94364L3.40624 8.25322C3.55464 8.40162 3.79524 8.40162 3.94364 8.25322C4.09204 8.10483 4.09204 7.86422 3.94364 7.71582L1.90275 5.67494L3.94364 3.63405ZM10.2524 4.90123L9.4489 4.90123C9.23844 4.90123 9.06782 4.73061 9.06782 4.52014C9.06782 4.30968 9.23844 4.13906 9.4489 4.13906L10.2524 4.13906L16.4997 4.13906C16.7101 4.13906 16.8808 4.30968 16.8808 4.52014C16.8808 4.73061 16.7101 4.90123 16.4997 4.90123L10.2524 4.90123ZM10.2524 7.21081L9.4489 7.21081C9.23844 7.21081 9.06782 7.0402 9.06782 6.82973C9.06782 6.61927 9.23844 6.44865 9.4489 6.44865L10.2524 6.44865L16.4997 6.44865C16.7101 6.44865 16.8808 6.61926 16.8808 6.82973C16.8808 7.0402 16.7101 7.21081 16.4997 7.21081L10.2524 7.21081ZM1.74652 12.0264C1.53606 12.0264 1.36544 12.197 1.36544 12.4075C1.36544 12.6179 1.53606 12.7886 1.74652 12.7886L11.254 12.7886H16.5004C16.7109 12.7886 16.8815 12.6179 16.8815 12.4075C16.8815 12.197 16.7109 12.0264 16.5004 12.0264H11.254L1.74652 12.0264ZM1.36544 15.1794C1.36544 14.969 1.53606 14.7983 1.74652 14.7983L11.254 14.7983H16.5004C16.7109 14.7983 16.8815 14.969 16.8815 15.1794C16.8815 15.3899 16.7109 15.5605 16.5004 15.5605H11.254L1.74652 15.5605C1.53606 15.5605 1.36544 15.3899 1.36544 15.1794Z" fill="#535353" />
</svg>