<svg width="20" height="20" viewBox="0 0 20 20" fill="none" xmlns="http://www.w3.org/2000/svg">
<g clip-path="url(#clip0_11215_634139)">
<path d="M18.1641 9.99984C18.1641 14.5102 14.5077 18.1665 9.9974 18.1665C5.48707 18.1665 1.83073 14.5102 1.83073 9.99984C1.83073 5.48951 5.48707 1.83317 9.9974 1.83317C14.5077 1.83317 18.1641 5.48951 18.1641 9.99984Z" stroke="black" stroke-width="0.333333"/>
<path d="M10.0058 3.33301C9.1829 3.33301 8.51562 6.31776 8.51562 9.99967C8.51562 13.6816 9.1829 16.6663 10.0058 16.6663C10.8287 16.6663 11.496 13.6816 11.496 9.99967C11.496 6.31776 10.8287 3.33301 10.0058 3.33301ZM10.1087 16.2901C10.0146 16.4156 9.92049 16.3215 9.92049 16.3215C9.54151 15.8823 9.35202 15.0666 9.35202 15.0666C8.68914 12.9333 8.84691 8.35287 8.84691 8.35287C9.15844 4.71652 9.72514 3.85751 9.91799 3.6668C9.93768 3.64733 9.96361 3.63544 9.9912 3.63321C10.0188 3.63098 10.0463 3.63855 10.0689 3.6546C10.3487 3.85287 10.5834 4.68206 10.5834 4.68206C11.2764 7.2546 11.2136 9.67028 11.2136 9.67028C11.2764 11.7722 10.8663 14.1252 10.8663 14.1252C10.5507 15.9133 10.1087 16.2901 10.1087 16.2901Z" fill="black"/>
<path d="M15.7853 6.67902C15.3756 5.96497 12.4548 6.87162 9.25958 8.70382C6.06435 10.536 3.81048 12.6003 4.21989 13.314C4.6293 14.0278 7.55039 13.1214 10.7456 11.2892C13.9408 9.45703 16.1947 7.39276 15.7853 6.67902ZM4.59789 13.2161C4.44103 13.1963 4.47647 13.0674 4.47647 13.0674C4.66888 12.5203 5.2812 11.9499 5.2812 11.9499C6.80243 10.3132 10.8542 8.17079 10.8542 8.17079C14.1631 6.63133 15.1908 6.69628 15.4516 6.76806C15.4783 6.77553 15.5016 6.79223 15.5172 6.8152C15.5328 6.83818 15.5398 6.86594 15.537 6.89358C15.5056 7.23511 14.9016 7.85109 14.9016 7.85109C13.0164 9.73312 10.8897 10.881 10.8897 10.881C9.09765 11.9819 6.85268 12.7966 6.85268 12.7966C5.14447 13.4122 4.59796 13.2161 4.59796 13.2161H4.59789Z" fill="black"/>
<path d="M15.7726 13.3408C16.1855 12.6286 13.9373 10.5549 10.7532 8.70889C7.56925 6.8629 4.64883 5.94503 4.23631 6.65841C3.82379 7.37179 6.07162 9.44428 9.25746 11.2903C12.4433 13.1363 15.36 14.0542 15.7726 13.3408ZM4.5099 6.93359C4.44891 6.78899 4.57766 6.75416 4.57766 6.75416C5.14765 6.64652 5.94831 6.89181 5.94831 6.89181C8.12649 7.38783 12.0105 9.82076 12.0105 9.82076C15.0009 11.9133 15.4596 12.835 15.5283 13.0967C15.5353 13.1235 15.5326 13.152 15.5206 13.177C15.5087 13.202 15.4883 13.222 15.4631 13.2335C15.1512 13.3762 14.3161 13.1635 14.3161 13.1635C11.7419 12.4733 9.68328 11.2087 9.68328 11.2087C7.83357 10.2111 6.00454 8.67602 6.00454 8.67602C4.61474 7.50584 4.51033 6.93517 4.51033 6.93517L4.5099 6.93359Z" fill="black"/>
<path d="M9.98743 10.7698C10.4206 10.7698 10.7717 10.4186 10.7717 9.98548C10.7717 9.55232 10.4206 9.20117 9.98743 9.20117C9.55427 9.20117 9.20312 9.55232 9.20312 9.98548C9.20312 10.4186 9.55427 10.7698 9.98743 10.7698Z" fill="black"/>
<path d="M13.2049 7.44166C13.4561 7.44166 13.6598 7.23097 13.6598 6.97107C13.6598 6.71118 13.4561 6.50049 13.2049 6.50049C12.9537 6.50049 12.75 6.71118 12.75 6.97107C12.75 7.23097 12.9537 7.44166 13.2049 7.44166Z" fill="black"/>
<path d="M5.73616 9.04273C5.9874 9.04273 6.19107 8.83204 6.19107 8.57215C6.19107 8.31225 5.9874 8.10156 5.73616 8.10156C5.48492 8.10156 5.28125 8.31225 5.28125 8.57215C5.28125 8.83204 5.48492 9.04273 5.73616 9.04273Z" fill="black"/>
<path d="M9.06429 14.8171C9.31552 14.8171 9.51919 14.6065 9.51919 14.3466C9.51919 14.0867 9.31552 13.876 9.06429 13.876C8.81305 13.876 8.60938 14.0867 8.60938 14.3466C8.60938 14.6065 8.81305 14.8171 9.06429 14.8171Z" fill="black"/>
</g>
<defs>
<clipPath id="clip0_11215_634139">
<rect width="16.6667" height="16.6667" fill="white" transform="translate(1.66406 1.6665)"/>
</clipPath>
</defs>
</svg>
