<svg width="20" height="20" viewBox="0 0 20 20" fill="none" xmlns="http://www.w3.org/2000/svg">
<g clip-path="url(#clip0_11215_634138)">
<path d="M9.99733 1.83508C14.5076 1.83508 18.1639 5.4914 18.1639 10.0017C18.1639 14.512 14.5076 18.1683 9.99733 18.1683C5.48704 18.1683 1.83073 14.512 1.83073 10.0017C1.83073 5.4914 5.48704 1.83508 9.99733 1.83508Z" stroke="black" stroke-width="0.333333"/>
<g clip-path="url(#clip1_11215_634138)">
<path d="M10.8718 5.3461C10.7614 5.31354 10.6454 5.37664 10.6129 5.48699L10.3769 6.28657L10.7764 6.40447L11.0124 5.6049C11.0449 5.49455 10.9821 5.37866 10.8718 5.3461Z" fill="black"/>
<path d="M12.0827 5.70402C11.9723 5.67145 11.8564 5.73455 11.8238 5.8449L11.5878 6.64448C11.7253 6.68537 11.8544 6.74064 11.9741 6.80814L12.2236 5.96289C12.2562 5.85254 12.1931 5.73659 12.0827 5.70402Z" fill="black"/>
<path d="M7.90481 14.6759C7.87224 14.7863 7.93536 14.9023 8.04569 14.9348C8.15602 14.9674 8.27173 14.9042 8.3043 14.7938L8.54011 13.9949L8.14062 13.877L7.90481 14.6759Z" fill="black"/>
<path d="M9.10794 15.0343C9.07537 15.1447 9.13847 15.2607 9.24884 15.2932C9.35917 15.3258 9.47513 15.2627 9.5077 15.1523L9.74352 14.3533L9.34375 14.2354L9.10794 15.0343Z" fill="black"/>
<path d="M11.6766 10.4265C12.3155 10.225 12.8461 9.71955 13.0501 9.02856C13.3757 7.92518 12.745 6.76675 11.6417 6.4411L9.51632 5.8138L8.64492 5.55598C8.53458 5.52342 8.41897 5.58632 8.38641 5.69665C8.35384 5.80699 8.41668 5.92291 8.52701 5.95547L9.1264 6.13238L8.18287 9.32919L8.06479 9.72926L7.00344 13.3253L6.40405 13.1484C6.29372 13.1158 6.17811 13.1787 6.14554 13.289C6.11298 13.3994 6.17582 13.5153 6.28615 13.5478L6.88554 13.7247L7.15772 13.8051L9.88247 14.6093C11.0964 14.9676 12.3708 14.274 12.729 13.0603C13.035 12.0237 12.5738 10.943 11.6766 10.4265ZM9.52603 6.25096L11.5238 6.84059C11.9508 6.96661 12.303 7.25128 12.5159 7.64217C12.7285 8.03325 12.7766 8.48365 12.6506 8.91066C12.5246 9.33765 12.2396 9.68975 11.8488 9.90272C11.4671 10.1105 11.0284 10.1608 10.6106 10.0457L8.58268 9.44719L9.52603 6.25096ZM11.4275 14.0583C10.9874 14.2978 10.4806 14.3516 10.0003 14.2098L7.40324 13.4433L8.46459 9.84728L10.4623 10.4369C10.472 10.4398 10.4817 10.4423 10.4914 10.4452L11.0618 10.6135C11.5421 10.7553 11.9385 11.0755 12.178 11.5153C12.4173 11.9553 12.4711 12.4618 12.3293 12.9424C12.1875 13.4226 11.8672 13.819 11.4275 14.0583Z" fill="black"/>
</g>
</g>
<defs>
<clipPath id="clip0_11215_634138">
<rect width="16.6665" height="16.6665" fill="white" transform="translate(1.66406 18.3335) rotate(-90)"/>
</clipPath>
<clipPath id="clip1_11215_634138">
<rect width="9.99911" height="9.99911" fill="white" transform="translate(6.88281 4.1665) rotate(16.4438)"/>
</clipPath>
</defs>
</svg>
