<?xml version='1.0' encoding='utf-8'?>
<svg fill="none" height="13" viewBox="0 0 13 13" width="13">
<g clip-path="url(#clip0_11203_8788)">
<mask height="9" id="mask0_11203_8788" maskUnits="userSpaceOnUse" style="mask-type:luminance" width="9" x="2" y="2">
<path d="M11 2H2V11H11V2Z" fill="white" />
</mask>
<g mask="url(#mask0_11203_8788)">
<path d="M10.168 6.5C10.168 8.52344 8.52344 10.1641 6.5 10.1641C4.47656 10.1641 2.83594 8.52344 2.83594 6.5C2.83594 4.47266 4.47656 2.83203 6.5 2.83203C8.52344 2.83203 10.168 4.47266 10.168 6.5Z" stroke="url(#paint0_radial_11203_8788)" stroke-width="0.24" />
<path d="M6.5 3.5C6.12891 3.5 5.82812 4.84375 5.82812 6.5C5.82812 8.15625 6.12891 9.5 6.5 9.5C6.87109 9.5 7.17188 8.15625 7.17188 6.5C7.17188 4.84375 6.87109 3.5 6.5 3.5ZM6.54688 9.33203C6.50391 9.38672 6.46094 9.34375 6.46094 9.34375C6.29297 9.14844 6.20703 8.78125 6.20703 8.78125C5.90625 7.82031 5.98047 5.75781 5.98047 5.75781C6.11719 4.12109 6.375 3.73437 6.46094 3.64844C6.46875 3.64062 6.48047 3.63672 6.49219 3.63672C6.50781 3.63281 6.51953 3.63672 6.52734 3.64453C6.65625 3.73438 6.76172 4.10547 6.76172 4.10547C7.07031 5.26562 7.04297 6.35156 7.04297 6.35156C7.07031 7.29688 6.88672 8.35547 6.88672 8.35547C6.74609 9.16016 6.54688 9.33203 6.54688 9.33203Z" stroke="url(#paint1_radial_11203_8788)" stroke-width="0.17" />
<path d="M9.10156 5.00391C8.91797 4.6836 7.60547 5.09375 6.16406 5.91797C4.72656 6.74219 3.71484 7.67188 3.89843 7.99219C4.08203 8.3125 5.39843 7.90625 6.83593 7.08203C8.27343 6.25781 9.28515 5.32813 9.10156 5.00391ZM4.0664 7.94922C3.99609 7.9375 4.01172 7.87891 4.01172 7.87891C4.10156 7.63281 4.375 7.37891 4.375 7.37891C5.05859 6.64063 6.88281 5.67578 6.88281 5.67578C8.37109 4.98438 8.83593 5.01172 8.95312 5.04688C8.96484 5.05078 8.97656 5.0586 8.98047 5.06641C8.98828 5.07813 8.99218 5.08985 8.99218 5.10156C8.97656 5.25781 8.70312 5.53516 8.70312 5.53516C7.85547 6.37891 6.89843 6.89844 6.89843 6.89844C6.09375 7.39063 5.08203 7.75781 5.08203 7.75781C4.3125 8.03516 4.0664 7.94922 4.0664 7.94922Z" stroke="url(#paint2_radial_11203_8788)" stroke-width="0.12" />
<path d="M9.09765 8.00391C9.28125 7.68359 8.26953 6.75 6.83593 5.91797C5.40625 5.08984 4.08984 4.67578 3.90625 4.99609C3.71875 5.31641 4.73047 6.25 6.16406 7.08203C7.59765 7.91016 8.91015 8.32422 9.09765 8.00391ZM4.02734 5.12109C4 5.05469 4.05859 5.03906 4.05859 5.03906C4.3164 4.99219 4.67578 5.10156 4.67578 5.10156C5.65625 5.32422 7.40234 6.41797 7.40234 6.41797C8.75 7.35938 8.95703 7.77734 8.98828 7.89453C8.98828 7.90625 8.98828 7.91797 8.98437 7.92969C8.97656 7.94141 8.96875 7.94922 8.95703 7.95312C8.8164 8.01953 8.4414 7.92188 8.4414 7.92188C7.28125 7.61328 6.35547 7.04297 6.35547 7.04297C5.52343 6.59375 4.69922 5.90234 4.69922 5.90234C4.07422 5.37891 4.02734 5.12109 4.02734 5.12109Z" stroke="url(#paint3_radial_11203_8788)" stroke-width="0.12" />
<path d="M6.49219 6.84766C6.6875 6.84766 6.84766 6.6875 6.84766 6.49219C6.84766 6.30078 6.6875 6.14062 6.49219 6.14062C6.29687 6.14062 6.14062 6.30078 6.14062 6.49219C6.14062 6.6875 6.29687 6.84766 6.49219 6.84766Z" fill="url(#paint4_radial_11203_8788)" stroke="url(#paint5_radial_11203_8788)" stroke-width="0.12" />
<path d="M7.94141 5.34766C8.05469 5.34766 8.14453 5.25391 8.14453 5.13672C8.14453 5.01953 8.05469 4.92578 7.94141 4.92578C7.82812 4.92578 7.73438 5.01953 7.73438 5.13672C7.73438 5.25391 7.82812 5.34766 7.94141 5.34766Z" fill="url(#paint6_radial_11203_8788)" stroke="url(#paint7_radial_11203_8788)" stroke-width="0.12" />
<path d="M4.57812 6.07031C4.69141 6.07031 4.78516 5.97656 4.78516 5.85938C4.78516 5.74219 4.69141 5.64453 4.57812 5.64453C4.46875 5.64453 4.375 5.74219 4.375 5.85938C4.375 5.97656 4.46875 6.07031 4.57812 6.07031Z" fill="url(#paint8_radial_11203_8788)" stroke="url(#paint9_radial_11203_8788)" stroke-width="0.12" />
<path d="M6.07812 8.66797C6.19141 8.66797 6.28125 8.57422 6.28125 8.45703C6.28125 8.33984 6.19141 8.24609 6.07812 8.24609C5.96484 8.24609 5.87109 8.33984 5.87109 8.45703C5.87109 8.57422 5.96484 8.66797 6.07812 8.66797Z" fill="url(#paint10_radial_11203_8788)" stroke="url(#paint11_radial_11203_8788)" stroke-width="0.12" />
</g>
</g>
<defs>
<radialGradient cx="0" cy="0" gradientTransform="translate(3.50862 4.86666) rotate(35.1664) scale(8.10723 7.65812)" gradientUnits="userSpaceOnUse" id="paint0_radial_11203_8788" r="1">
<stop offset="0.0760668" />
<stop offset="0.380208" stop-color="#42D2FF" />
<stop offset="0.666667" stop-color="#939393" />
<stop offset="1" />
</radialGradient>
<radialGradient cx="0" cy="0" gradientTransform="translate(5.96536 5.19449) rotate(72.3976) scale(3.919 2.26637)" gradientUnits="userSpaceOnUse" id="paint1_radial_11203_8788" r="1">
<stop offset="0.0760668" />
<stop offset="0.380208" stop-color="#42D2FF" />
<stop offset="0.666667" stop-color="#939393" />
<stop offset="1" />
</radialGradient>
<radialGradient cx="0" cy="0" gradientTransform="translate(4.40674 5.80122) rotate(23.2839) scale(5.04835 3.6775)" gradientUnits="userSpaceOnUse" id="paint2_radial_11203_8788" r="1">
<stop offset="0.0760668" />
<stop offset="0.380208" stop-color="#42D2FF" />
<stop offset="0.666667" stop-color="#939393" />
<stop offset="1" />
</radialGradient>
<radialGradient cx="0" cy="0" gradientTransform="translate(4.41209 5.79794) rotate(23.4598) scale(5.04313 3.69498)" gradientUnits="userSpaceOnUse" id="paint3_radial_11203_8788" r="1">
<stop offset="0.0760668" />
<stop offset="0.380208" stop-color="#42D2FF" />
<stop offset="0.666667" stop-color="#939393" />
<stop offset="1" />
</radialGradient>
<radialGradient cx="0" cy="0" gradientTransform="translate(5.97778 5.92223) rotate(45) scale(1.2129 1.1457)" gradientUnits="userSpaceOnUse" id="paint4_radial_11203_8788" r="1">
<stop offset="0.0760668" />
<stop offset="0.303594" stop-color="#42D2FF" />
<stop offset="0.666667" stop-color="#939393" />
<stop offset="1" />
</radialGradient>
<radialGradient cx="0" cy="0" gradientTransform="translate(5.97778 5.92223) rotate(45) scale(1.2129 1.1457)" gradientUnits="userSpaceOnUse" id="paint5_radial_11203_8788" r="1">
<stop offset="0.0760668" />
<stop offset="0.303594" stop-color="#42D2FF" />
<stop offset="0.666667" stop-color="#939393" />
<stop offset="1" />
</radialGradient>
<radialGradient cx="0" cy="0" gradientTransform="translate(7.50883 4.77677) rotate(45) scale(0.989518 0.944936)" gradientUnits="userSpaceOnUse" id="paint6_radial_11203_8788" r="1">
<stop offset="0.0760668" />
<stop offset="0.380208" stop-color="#42D2FF" />
<stop offset="0.666667" stop-color="#939393" />
<stop offset="1" />
</radialGradient>
<radialGradient cx="0" cy="0" gradientTransform="translate(7.50883 4.77677) rotate(45) scale(0.989518 0.944936)" gradientUnits="userSpaceOnUse" id="paint7_radial_11203_8788" r="1">
<stop offset="0.0760668" />
<stop offset="0.380208" stop-color="#42D2FF" />
<stop offset="0.666667" stop-color="#939393" />
<stop offset="1" />
</radialGradient>
<radialGradient cx="0" cy="0" gradientTransform="translate(4.09807 5.34895) rotate(45) scale(1.16346 1.11105)" gradientUnits="userSpaceOnUse" id="paint8_radial_11203_8788" r="1">
<stop offset="0.0760668" />
<stop offset="0.380208" stop-color="#42D2FF" />
<stop offset="0.666667" stop-color="#939393" />
<stop offset="1" />
</radialGradient>
<radialGradient cx="0" cy="0" gradientTransform="translate(4.09807 5.34895) rotate(45) scale(1.16346 1.11105)" gradientUnits="userSpaceOnUse" id="paint9_radial_11203_8788" r="1">
<stop offset="0.0760668" />
<stop offset="0.380208" stop-color="#42D2FF" />
<stop offset="0.666667" stop-color="#939393" />
<stop offset="1" />
</radialGradient>
<radialGradient cx="0" cy="0" gradientTransform="translate(5.71351 8.06595) rotate(41.9214) scale(0.855791 0.817233)" gradientUnits="userSpaceOnUse" id="paint10_radial_11203_8788" r="1">
<stop offset="0.0760668" />
<stop offset="0.380208" stop-color="#42D2FF" />
<stop offset="0.666667" stop-color="#939393" />
<stop offset="1" />
</radialGradient>
<radialGradient cx="0" cy="0" gradientTransform="translate(5.71351 8.06595) rotate(41.9214) scale(0.855791 0.817233)" gradientUnits="userSpaceOnUse" id="paint11_radial_11203_8788" r="1">
<stop offset="0.0760668" />
<stop offset="0.380208" stop-color="#42D2FF" />
<stop offset="0.666667" stop-color="#939393" />
<stop offset="1" />
</radialGradient>
<clipPath id="clip0_11203_8788">
<rect fill="white" height="9" transform="translate(2 2)" width="9" />
</clipPath>
</defs>
</svg>