<?xml version='1.0' encoding='utf-8'?>
<svg fill="none" height="13" viewBox="0 0 13 13" width="13">
<g clip-path="url(#clip0_11203_8822)">
<g filter="url(#filter0_b_11203_8822)">
<path d="M5.04167 6.20834V5.04167C5.04167 4.6549 5.19531 4.28396 5.4688 4.01047C5.74229 3.73698 6.11323 3.58334 6.5 3.58334C6.88677 3.58334 7.25771 3.73698 7.5312 4.01047C7.80469 4.28396 7.95833 4.6549 7.95833 5.04167V6.20834M4.45833 6.20833H8.54167C8.86383 6.20833 9.125 6.4695 9.125 6.79167V8.83333C9.125 9.1555 8.86383 9.41667 8.54167 9.41667H4.45833C4.13617 9.41667 3.875 9.1555 3.875 8.83333V6.79167C3.875 6.4695 4.13617 6.20833 4.45833 6.20833Z" stroke="url(#paint0_radial_11203_8822)" stroke-linecap="round" stroke-linejoin="round" stroke-width="0.24" />
</g>
</g>
<defs>
<filter color-interpolation-filters="sRGB" filterUnits="userSpaceOnUse" height="7.84007" id="filter0_b_11203_8822" width="7.25673" x="2.87164" y="2.57997">
<feFlood flood-opacity="0" result="BackgroundImageFix" />
<feGaussianBlur in="BackgroundImageFix" stdDeviation="0.416683" />
<feComposite in2="SourceAlpha" operator="in" result="effect1_backgroundBlur_11203_8822" />
<feBlend in="SourceGraphic" in2="effect1_backgroundBlur_11203_8822" mode="normal" result="shape" />
</filter>
<radialGradient cx="0" cy="0" gradientTransform="translate(4.40552 5.23076) rotate(38.0548) scale(5.89172 5.73729)" gradientUnits="userSpaceOnUse" id="paint0_radial_11203_8822" r="1">
<stop offset="0.0760668" />
<stop offset="0.380208" stop-color="#42D2FF" />
<stop offset="0.666667" stop-color="#939393" />
<stop offset="1" />
</radialGradient>
<clipPath id="clip0_11203_8822">
<rect fill="white" height="7" transform="translate(3 3)" width="7" />
</clipPath>
</defs>
</svg>