<svg width="13" height="13" viewBox="0 0 13 13" fill="none" xmlns="http://www.w3.org/2000/svg">
<g clip-path="url(#clip0_11203_8777)">
<mask id="mask0_11203_8777" style="mask-type:luminance" maskUnits="userSpaceOnUse" x="2" y="2" width="9" height="9">
<path d="M11 2H2V11H11V2Z" fill="white"/>
</mask>
<g mask="url(#mask0_11203_8777)">
<path d="M5.66016 5.67188H5.44922C5.44922 5.37891 5.54687 5.13281 5.73828 4.93359C5.93359 4.73438 6.1875 4.63281 6.5 4.63281C6.81641 4.63281 7.07031 4.73438 7.26172 4.93359C7.45312 5.13281 7.55078 5.37891 7.55078 5.67188C7.55078 6.03906 7.43359 6.31641 7.19922 6.51172C7.00781 6.67578 6.77734 6.75391 6.51172 6.75391V7.69922H6.3125V6.56641C6.99609 6.56641 7.33984 6.26953 7.33984 5.67188C7.33984 5.4375 7.26172 5.24219 7.10547 5.08203C6.94922 4.91406 6.75 4.83203 6.5 4.83203C6.25391 4.83203 6.05078 4.91406 5.89062 5.08203C5.73828 5.24219 5.66016 5.4375 5.66016 5.67188ZM6.21094 8.20313C6.21094 8.14844 6.23047 8.10156 6.26953 8.0625C6.30859 8.02344 6.35547 8.00391 6.41016 8.00391C6.46875 8.00391 6.51562 8.02344 6.55469 8.0625C6.58984 8.10156 6.60937 8.14844 6.60937 8.20313C6.60937 8.26172 6.58984 8.30859 6.55469 8.34766C6.51562 8.38281 6.46875 8.40234 6.41016 8.40234C6.35547 8.40234 6.30859 8.38281 6.26953 8.34766C6.23047 8.30859 6.21094 8.26172 6.21094 8.20313Z" fill="url(#paint0_radial_11203_8777)" stroke="url(#paint1_radial_11203_8777)" stroke-width="0.17"/>
<path d="M6.5 2.82031C8.53125 2.82031 10.1758 4.46875 10.1758 6.49609C10.1758 8.52734 8.53125 10.1719 6.5 10.1719C4.47266 10.1719 2.82812 8.52734 2.82812 6.49609C2.82812 4.46875 4.47266 2.82031 6.5 2.82031Z" stroke="url(#paint2_radial_11203_8777)" stroke-width="0.34"/>
</g>
</g>
<defs>
<radialGradient id="paint0_radial_11203_8777" cx="0" cy="0" r="1" gradientUnits="userSpaceOnUse" gradientTransform="translate(3.50935 4.86518) rotate(35.1664) scale(8.10723 7.65812)">
<stop offset="0.0760668"/>
<stop offset="0.380208" stop-color="#42D2FF"/>
<stop offset="0.666667" stop-color="#939393"/>
<stop offset="1"/>
</radialGradient>
<radialGradient id="paint1_radial_11203_8777" cx="0" cy="0" r="1" gradientUnits="userSpaceOnUse" gradientTransform="translate(3.50935 4.86518) rotate(35.1664) scale(8.10723 7.65812)">
<stop offset="0.0760668"/>
<stop offset="0.380208" stop-color="#42D2FF"/>
<stop offset="0.666667" stop-color="#939393"/>
<stop offset="1"/>
</radialGradient>
<radialGradient id="paint2_radial_11203_8777" cx="0" cy="0" r="1" gradientUnits="userSpaceOnUse" gradientTransform="translate(3.50935 4.86518) rotate(35.1664) scale(8.10723 7.65812)">
<stop offset="0.0760668"/>
<stop offset="0.380208" stop-color="#42D2FF"/>
<stop offset="0.666667" stop-color="#939393"/>
<stop offset="1"/>
</radialGradient>
<clipPath id="clip0_11203_8777">
<rect width="9" height="9" fill="white" transform="translate(2 2)"/>
</clipPath>
</defs>
</svg>
