<?xml version="1.0" encoding="UTF-8" standalone="no"?>
<svg
   width="12.99988"
   height="6.9998999"
   viewBox="0 0 12.99988 6.9998999"
   fill="none"
   version="1.1"
   id="svg1"
   sodipodi:docname="chevron_down.svg"
   inkscape:version="1.3.2 (091e20e, 2023-11-25)"
   xmlns:inkscape="http://www.inkscape.org/namespaces/inkscape"
   xmlns:sodipodi="http://sodipodi.sourceforge.net/DTD/sodipodi-0.dtd"
   xmlns="http://www.w3.org/2000/svg"
   xmlns:svg="http://www.w3.org/2000/svg">
  <defs
     id="defs1" />
  <sodipodi:namedview
     id="namedview1"
     pagecolor="#ffffff"
     bordercolor="#000000"
     borderopacity="0.25"
     inkscape:showpageshadow="2"
     inkscape:pageopacity="0.0"
     inkscape:pagecheckerboard="0"
     inkscape:deskcolor="#d1d1d1"
     inkscape:zoom="23.041667"
     inkscape:cx="6.4882459"
     inkscape:cy="3.4936709"
     inkscape:window-width="2560"
     inkscape:window-height="1403"
     inkscape:window-x="2560"
     inkscape:window-y="0"
     inkscape:window-maximized="1"
     inkscape:current-layer="svg1" />
  <path
     d="M 0.49993,0 C 0.36733,2e-5 0.24016,0.05271 0.14641,0.14648 0.05267,0.24025 0,0.36741 0,0.5 0,0.63259 0.05267,0.75975 0.14641,0.85352 L 6.14638,6.8535 c 0.0938,0.0937 0.221,0.1464 0.3535,0.1464 0.1326,0 0.2598,-0.0527 0.3536,-0.1464 l 6,-5.99998 c 0.0937,-0.09377 0.1464,-0.22093 0.1464,-0.35352 0,-0.13259 -0.0527,-0.25975 -0.1464,-0.35352 -0.0938,-0.09374 -0.221,-0.1464 -0.3536,-0.1464 -0.1325,0 -0.2597,0.05266 -0.3535,0.1464 L 6.49988,5.793 0.85344,0.14648 C 0.75969,0.05271 0.63253,2e-5 0.49993,0 Z"
     fill="#000000"
     id="path1" />
</svg>
