<?xml version='1.0' encoding='utf-8'?>
<svg fill="none" height="6.9998999" id="svg1" version="1.1" viewBox="0 0 12.99988 6.9998999" width="12.99988">
<defs id="defs1" />
<path d="M 0.49993,0 C 0.36733,2e-5 0.24016,0.05271 0.14641,0.14648 0.05267,0.24025 0,0.36741 0,0.5 0,0.63259 0.05267,0.75975 0.14641,0.85352 L 6.14638,6.8535 c 0.0938,0.0937 0.221,0.1464 0.3535,0.1464 0.1326,0 0.2598,-0.0527 0.3536,-0.1464 l 6,-5.99998 c 0.0937,-0.09377 0.1464,-0.22093 0.1464,-0.35352 0,-0.13259 -0.0527,-0.25975 -0.1464,-0.35352 -0.0938,-0.09374 -0.221,-0.1464 -0.3536,-0.1464 -0.1325,0 -0.2597,0.05266 -0.3535,0.1464 L 6.49988,5.793 0.85344,0.14648 C 0.75969,0.05271 0.63253,2e-5 0.49993,0 Z" fill="#000000" id="path1" />
</svg>