<?xml version='1.0' encoding='utf-8'?>
<svg fill="none" height="16" viewBox="0 0 17 16" width="17">
<path clip-rule="evenodd" d="M14.1 8.5C14.1 8.8142 13.7926 9.42727 12.7536 10.029C11.7783 10.5938 10.3787 11 8.8 11C7.22126 11 5.82165 10.5938 4.84637 10.029C3.80735 9.42727 3.5 8.8142 3.5 8.5C3.5 8.1858 3.80735 7.57273 4.84637 6.97104C5.82165 6.40624 7.22126 6 8.8 6C10.3787 6 11.7783 6.40624 12.7536 6.97104C13.7926 7.57273 14.1 8.1858 14.1 8.5ZM15.1 8.5C15.1 10.2182 12.2794 12 8.8 12C5.32061 12 2.5 10.2182 2.5 8.5C2.5 6.78178 5.32061 5 8.8 5C12.2794 5 15.1 6.78178 15.1 8.5ZM9.2009 8.5001C9.2009 8.72183 9.02263 8.9001 8.8009 8.9001C8.58113 8.9001 8.4009 8.71957 8.4009 8.5001C8.4009 8.27837 8.57916 8.1001 8.8009 8.1001C9.02263 8.1001 9.2009 8.27837 9.2009 8.5001ZM8.8009 9.9001C9.57492 9.9001 10.2009 9.27412 10.2009 8.5001C10.2009 7.72608 9.57492 7.1001 8.8009 7.1001C8.02688 7.1001 7.4009 7.72608 7.4009 8.5001C7.4009 9.26989 8.02688 9.9001 8.8009 9.9001Z" fill="#535353" fill-rule="evenodd" />
</svg>