<svg width="16" height="16" viewBox="0 0 16 16" fill="none" xmlns="http://www.w3.org/2000/svg">
<g clip-path="url(#clip0_9635_320544)">
<path d="M12.6667 7.33301H3.33333C2.59695 7.33301 2 7.92996 2 8.66634V13.333C2 14.0694 2.59695 14.6663 3.33333 14.6663H12.6667C13.403 14.6663 14 14.0694 14 13.333V8.66634C14 7.92996 13.403 7.33301 12.6667 7.33301Z" stroke="#535353" stroke-linecap="round" stroke-linejoin="round"/>
<path d="M4.66797 7.33301V4.66634C4.66797 3.78229 5.01916 2.93444 5.64428 2.30932C6.2694 1.6842 7.11725 1.33301 8.0013 1.33301C8.88536 1.33301 9.7332 1.6842 10.3583 2.30932C10.9834 2.93444 11.3346 3.78229 11.3346 4.66634V7.33301" stroke="#535353" stroke-linecap="round" stroke-linejoin="round"/>
</g>
<defs>
<clipPath id="clip0_9635_320544">
<rect width="16" height="16" fill="white"/>
</clipPath>
</defs>
</svg>
