<svg width="47" height="46" viewBox="0 0 47 46" fill="none" xmlns="http://www.w3.org/2000/svg">
<path fill-rule="evenodd" clip-rule="evenodd" d="M5.02832 8.93262C5.02832 6.50127 6.99932 4.53027 9.43066 4.53027H15.2842C15.5604 4.53027 15.7842 4.75413 15.7842 5.03027C15.7842 5.30642 15.5604 5.53027 15.2842 5.53027H9.43066C7.5516 5.53027 6.02832 7.05355 6.02832 8.93262V14.7862C6.02832 15.0623 5.80446 15.2862 5.52832 15.2862C5.25218 15.2862 5.02832 15.0623 5.02832 14.7862V8.93262ZM5.02832 37.9029C5.02832 40.3343 6.99932 42.3053 9.43066 42.3053H15.2842C15.5604 42.3053 15.7842 42.0814 15.7842 41.8053C15.7842 41.5291 15.5604 41.3053 15.2842 41.3053H9.43066C7.5516 41.3053 6.02832 39.782 6.02832 37.9029V32.0494C6.02832 31.7732 5.80446 31.5494 5.52832 31.5494C5.25218 31.5494 5.02832 31.7732 5.02832 32.0494V37.9029ZM38.3991 42.3053C40.8304 42.3053 42.8014 40.3343 42.8014 37.9029V32.0494C42.8014 31.7732 42.5776 31.5494 42.3014 31.5494C42.0253 31.5494 41.8014 31.7732 41.8014 32.0494V37.9029C41.8014 39.782 40.2781 41.3053 38.3991 41.3053H32.5455C32.2694 41.3053 32.0455 41.5291 32.0455 41.8053C32.0455 42.0814 32.2694 42.3053 32.5455 42.3053H38.3991ZM42.8014 8.93262C42.8014 6.50127 40.8304 4.53027 38.3991 4.53027H32.5455C32.2694 4.53027 32.0455 4.75413 32.0455 5.03027C32.0455 5.30642 32.2694 5.53027 32.5455 5.53027H38.3991C40.2781 5.53027 41.8014 7.05355 41.8014 8.93262V14.7862C41.8014 15.0623 42.0253 15.2862 42.3014 15.2862C42.5776 15.2862 42.8014 15.0623 42.8014 14.7862V8.93262ZM32.6698 23.414C32.6698 28.2497 28.7496 32.1698 23.9139 32.1698C19.0782 32.1698 15.1581 28.2497 15.1581 23.414C15.1581 18.5782 19.0782 14.6581 23.9139 14.6581C28.7496 14.6581 32.6698 18.5782 32.6698 23.414ZM33.6698 23.414C33.6698 28.802 29.3019 33.1698 23.9139 33.1698C18.5259 33.1698 14.1581 28.802 14.1581 23.414C14.1581 18.026 18.5259 13.6581 23.9139 13.6581C29.3019 13.6581 33.6698 18.026 33.6698 23.414Z" fill="#969696"/>
</svg>
