<svg width="17" height="16" viewBox="0 0 17 16" fill="none" xmlns="http://www.w3.org/2000/svg">
<g clip-path="url(#clip0_9635_427462)">
<path fill-rule="evenodd" clip-rule="evenodd" d="M15.5 8C15.5 11.866 12.366 15 8.5 15C4.63401 15 1.5 11.866 1.5 8C1.5 4.13401 4.63401 1 8.5 1C12.366 1 15.5 4.13401 15.5 8ZM16.5 8C16.5 12.4183 12.9183 16 8.5 16C4.08172 16 0.5 12.4183 0.5 8C0.5 3.58172 4.08172 0 8.5 0C12.9183 0 16.5 3.58172 16.5 8ZM13 8.40034C13.2762 8.40033 13.5 8.17647 13.5 7.90032C13.5 7.62418 13.2761 7.40033 13 7.40034L3.78569 7.40071C3.50955 7.40072 3.2857 7.62458 3.28571 7.90073C3.28572 8.17687 3.50959 8.40072 3.78573 8.40071L13 8.40034Z" fill="#535353"/>
</g>
<defs>
<clipPath id="clip0_9635_427462">
<rect width="16" height="16" fill="white" transform="translate(0.5)"/>
</clipPath>
</defs>
</svg>
