<svg width="35" height="34" viewBox="0 0 35 34" fill="none" xmlns="http://www.w3.org/2000/svg">
<mask id="path-1-inside-1_4512_90169" fill="white">
<path fill-rule="evenodd" clip-rule="evenodd" d="M8.00559 3.94238C8.27728 3.94238 8.49752 4.16262 8.49752 4.43431V29.5658C8.49752 29.8375 8.27728 30.0577 8.00559 30.0577C7.73391 30.0577 7.51367 29.8375 7.51367 29.5658V4.43431C7.51367 4.16262 7.73391 3.94238 8.00559 3.94238Z"/>
</mask>
<path d="M9.49752 4.43431C9.49752 3.61034 8.82956 2.94238 8.00559 2.94238V4.94238C7.72499 4.94238 7.49752 4.71491 7.49752 4.43431H9.49752ZM9.49752 29.5658V4.43431H7.49752V29.5658H9.49752ZM8.00559 31.0577C8.82956 31.0577 9.49752 30.3897 9.49752 29.5658H7.49752C7.49752 29.2852 7.72499 29.0577 8.00559 29.0577V31.0577ZM6.51367 29.5658C6.51367 30.3897 7.18163 31.0577 8.00559 31.0577V29.0577C8.2862 29.0577 8.51367 29.2852 8.51367 29.5658H6.51367ZM6.51367 4.43431V29.5658H8.51367V4.43431H6.51367ZM8.00559 2.94238C7.18163 2.94238 6.51367 3.61034 6.51367 4.43431H8.51367C8.51367 4.71491 8.2862 4.94238 8.00559 4.94238V2.94238Z" fill="#969696" mask="url(#path-1-inside-1_4512_90169)"/>
<mask id="path-3-inside-2_4512_90169" fill="white">
<path fill-rule="evenodd" clip-rule="evenodd" d="M17.697 3.89746C17.9687 3.89746 18.1889 4.1177 18.1889 4.38938V29.6097C18.1889 29.8814 17.9687 30.1017 17.697 30.1017C17.4253 30.1017 17.2051 29.8814 17.2051 29.6097V4.38938C17.2051 4.1177 17.4253 3.89746 17.697 3.89746Z"/>
</mask>
<path d="M19.1889 4.38938C19.1889 3.56542 18.521 2.89746 17.697 2.89746V4.89746C17.4164 4.89746 17.1889 4.66999 17.1889 4.38938H19.1889ZM19.1889 29.6097V4.38938H17.1889V29.6097H19.1889ZM17.697 31.1017C18.521 31.1017 19.1889 30.4337 19.1889 29.6097H17.1889C17.1889 29.3291 17.4164 29.1017 17.697 29.1017V31.1017ZM16.2051 29.6097C16.2051 30.4337 16.873 31.1017 17.697 31.1017V29.1017C17.9776 29.1017 18.2051 29.3291 18.2051 29.6097H16.2051ZM16.2051 4.38938V29.6097H18.2051V4.38938H16.2051ZM17.697 2.89746C16.873 2.89746 16.2051 3.56542 16.2051 4.38938H18.2051C18.2051 4.66999 17.9776 4.89746 17.697 4.89746V2.89746Z" fill="#969696" mask="url(#path-3-inside-2_4512_90169)"/>
<mask id="path-5-inside-3_4512_90169" fill="white">
<path fill-rule="evenodd" clip-rule="evenodd" d="M27.3874 3.89746C27.6591 3.89746 27.8794 4.1177 27.8794 4.38938V29.6097C27.8794 29.8814 27.6591 30.1017 27.3874 30.1017C27.1157 30.1017 26.8955 29.8814 26.8955 29.6097V4.38938C26.8955 4.1177 27.1157 3.89746 27.3874 3.89746Z"/>
</mask>
<path d="M28.8794 4.38938C28.8794 3.56542 28.2114 2.89746 27.3874 2.89746V4.89746C27.1068 4.89746 26.8794 4.66999 26.8794 4.38938H28.8794ZM28.8794 29.6097V4.38938H26.8794V29.6097H28.8794ZM27.3874 31.1017C28.2114 31.1017 28.8794 30.4337 28.8794 29.6097H26.8794C26.8794 29.3291 27.1068 29.1017 27.3874 29.1017V31.1017ZM25.8955 29.6097C25.8955 30.4337 26.5635 31.1017 27.3874 31.1017V29.1017C27.668 29.1017 27.8955 29.3291 27.8955 29.6097H25.8955ZM25.8955 4.38938V29.6097H27.8955V4.38938H25.8955ZM27.3874 2.89746C26.5635 2.89746 25.8955 3.56542 25.8955 4.38938H27.8955C27.8955 4.66999 27.668 4.89746 27.3874 4.89746V2.89746Z" fill="#969696" mask="url(#path-5-inside-3_4512_90169)"/>
</svg>
