<svg width="35" height="34" viewBox="0 0 35 34" fill="none" xmlns="http://www.w3.org/2000/svg">
<path d="M27.4167 15.583H7.58333C6.01853 15.583 4.75 16.8515 4.75 18.4163V28.333C4.75 29.8978 6.01853 31.1663 7.58333 31.1663H27.4167C28.9815 31.1663 30.25 29.8978 30.25 28.333V18.4163C30.25 16.8515 28.9815 15.583 27.4167 15.583Z" stroke="#969696" stroke-linecap="round" stroke-linejoin="round"/>
<path d="M10.417 15.584V9.91732C10.417 8.0387 11.1633 6.23703 12.4917 4.90864C13.82 3.58026 15.6217 2.83398 17.5003 2.83398C19.3789 2.83398 21.1806 3.58026 22.509 4.90864C23.8374 6.23703 24.5837 8.0387 24.5837 9.91732V15.584" stroke="#969696" stroke-linecap="round" stroke-linejoin="round"/>
</svg>
