<svg width="17" height="16" viewBox="0 0 17 16" fill="none" xmlns="http://www.w3.org/2000/svg">
<path d="M2.28935 9.34547C2.08566 9.53192 2.07169 9.8482 2.25814 10.0519C2.44459 10.2556 2.76087 10.2696 2.96456 10.0831L2.28935 9.34547ZM4.83732 8.36881L5.20614 8.03121L4.53093 7.29358L4.16212 7.63119L4.83732 8.36881ZM2.96456 10.0831L4.83732 8.36881L4.16212 7.63119L2.28935 9.34547L2.96456 10.0831Z" fill="#535353"/>
<path d="M13.0547 7.95579L12.6775 7.6276L12.0212 8.38205L12.3984 8.71023L13.0547 7.95579ZM14.3688 10.4245C14.5772 10.6058 14.893 10.5838 15.0742 10.3755C15.2555 10.1671 15.2335 9.85132 15.0252 9.67007L14.3688 10.4245ZM12.3984 8.71023L14.3688 10.4245L15.0252 9.67007L13.0547 7.95579L12.3984 8.71023Z" fill="#535353"/>
<path d="M8.78516 9.52344L8.78516 11.2377" stroke="#535353" stroke-linecap="round"/>
<path d="M14.2146 5.71387C14.2146 5.71387 12.9315 9.2853 8.78599 9.2853C4.64051 9.2853 3.35742 5.71387 3.35742 5.71387" stroke="#535353" stroke-linecap="round"/>
</svg>
