<?xml version='1.0' encoding='utf-8'?>
<svg width="114" height="114" viewBox="0 0 114 114" fill="none">
<g clip-path="url(#clip0_11223_8365)">
<mask id="mask0_11223_8365" style="mask-type:luminance" maskUnits="userSpaceOnUse" x="0" y="0" width="114" height="114">
<path d="M114 0H0V114H114V0Z" fill="white" />
</mask>
<g mask="url(#mask0_11223_8365)">
<path d="M46.3671 46.5669H43.707C43.707 42.8428 44.9263 39.7174 47.3646 37.1904C49.8029 34.6633 53.0171 33.3999 57.0071 33.3999C60.9971 33.3999 64.2112 34.6633 66.6497 37.1904C69.088 39.7174 70.3071 42.8428 70.3071 46.5669C70.3071 51.1775 68.8219 54.7242 65.8517 57.2068C63.4132 59.2461 60.5095 60.2659 57.1401 60.2659V72.2359H54.6131V57.8719C63.3025 57.8719 67.6472 54.1036 67.6472 46.5669C67.6472 43.5965 66.6497 41.0916 64.6547 39.0523C62.704 36.9687 60.1548 35.9269 57.0071 35.9269C53.8594 35.9269 51.2882 36.9687 49.2932 39.0523C47.3425 41.0916 46.3671 43.5965 46.3671 46.5669ZM53.3496 78.6199C53.3496 77.9105 53.5934 77.312 54.0812 76.8244C54.5688 76.3367 55.1673 76.0929 55.8767 76.0929C56.5859 76.0929 57.1844 76.3367 57.6722 76.8244C58.1598 77.312 58.4036 77.9105 58.4036 78.6199C58.4036 79.3292 58.1598 79.9277 57.6722 80.4154C57.1844 80.903 56.5859 81.1468 55.8767 81.1468C55.1673 81.1468 54.5688 80.903 54.0812 80.4154C53.5934 79.9277 53.3496 79.3292 53.3496 78.6199Z" fill="url(#paint0_radial_11223_8365)" />
<path d="M103.569 56.9977C103.569 31.2889 82.7276 10.4478 57.0187 10.4478C31.3099 10.4478 10.4688 31.2889 10.4688 56.9977C10.4688 82.7066 31.3099 103.548 57.0187 103.548C82.7276 103.548 103.569 82.7066 103.569 56.9977Z" stroke="url(#paint1_radial_11223_8365)" stroke-width="2.38" />
</g>
</g>
<defs>
<radialGradient id="paint0_radial_11223_8365" cx="0" cy="0" r="1" gradientUnits="userSpaceOnUse" gradientTransform="translate(19.1181 36.3273) rotate(35.1664) scale(102.692 97.0029)">
<stop offset="0.0760668" />
<stop offset="0.380208" stop-color="#42D2FF" />
<stop offset="0.666667" stop-color="#939393" />
<stop offset="1" />
</radialGradient>
<radialGradient id="paint1_radial_11223_8365" cx="0" cy="0" r="1" gradientUnits="userSpaceOnUse" gradientTransform="translate(19.1186 36.3272) rotate(35.1664) scale(102.692 97.0029)">
<stop offset="0.0760668" />
<stop offset="0.380208" stop-color="#42D2FF" />
<stop offset="0.666667" stop-color="#939393" />
<stop offset="1" />
</radialGradient>
<clipPath id="clip0_11223_8365">
<rect width="114" height="114" fill="white" />
</clipPath>
</defs>
</svg>