<?xml version='1.0' encoding='utf-8'?>
<svg width="14" height="14" viewBox="0 0 14 14" fill="none">
<g clip-path="url(#clip0_9681_449677)">
<path d="M6.64319 1.76362C9.53374 1.76362 11.877 4.10688 11.877 6.99744C11.877 9.88799 9.53374 12.2312 6.64319 12.2312C3.75263 12.2312 1.40937 9.88799 1.40937 6.99744C1.40937 4.10688 3.75263 1.76362 6.64319 1.76362Z" stroke="url(#paint0_radial_9681_449677)" stroke-width="0.6" />
<path fill-rule="evenodd" clip-rule="evenodd" d="M7.7653 3.89444C7.82051 3.73822 7.73864 3.56683 7.58242 3.51161C7.42621 3.4564 7.25481 3.53828 7.1996 3.69449L7.08686 4.01346L6.09022 3.6395C5.93509 3.58129 5.76215 3.65986 5.70395 3.81498C5.64574 3.97011 5.72431 4.14304 5.87943 4.20125L6.17292 4.31138L4.57678 8.84584L4.28678 8.74295C4.13063 8.68755 3.95914 8.76922 3.90373 8.92537C3.84833 9.08152 3.93 9.25301 4.08615 9.30841L5.08935 9.66435L4.98647 9.95546C4.93125 10.1117 5.01313 10.2831 5.16935 10.3383C5.32556 10.3935 5.49696 10.3116 5.55217 10.1554L5.65482 9.86498L5.87165 9.94192L5.7691 10.2321C5.71388 10.3883 5.79576 10.5597 5.95198 10.6149C6.10819 10.6701 6.27959 10.5882 6.3348 10.432L6.43712 10.1425L6.48257 10.1587C6.97881 10.3347 7.52872 10.2698 7.97031 9.98302C8.41707 9.69287 8.70115 9.20931 8.73709 8.67781L8.74827 8.51246C8.77659 8.09364 8.61639 7.68405 8.31143 7.39558L8.27382 7.36C8.96917 6.99252 9.32611 6.1924 9.12653 5.42436C9.02606 5.03773 8.76881 4.7141 8.42181 4.5279L8.54793 4.17105C8.60315 4.01484 8.52127 3.84344 8.36505 3.78823C8.20884 3.73302 8.03744 3.81489 7.98223 3.97111L7.86417 4.30513L7.64872 4.22428L7.7653 3.89444ZM6.7348 4.5222L6.07381 6.39998L7.73067 6.95429L7.94607 6.85315C8.42754 6.62711 8.67959 6.09006 8.54581 5.57526C8.47839 5.31578 8.28891 5.10534 8.0379 5.01116L6.7348 4.5222ZM7.59139 7.54038L5.87457 6.96601L5.14224 9.04647L6.6832 9.59321C7.00351 9.70686 7.35847 9.66495 7.64351 9.47983C7.93189 9.29254 8.11526 8.98041 8.13846 8.63734L8.14964 8.47199C8.16588 8.23179 8.074 7.9969 7.89911 7.83146L7.59139 7.54038Z" fill="url(#paint1_radial_9681_449677)" />
</g>
<defs>
<radialGradient id="paint0_radial_9681_449677" cx="0" cy="0" r="1" gradientUnits="userSpaceOnUse" gradientTransform="translate(4.23504 11.4129) rotate(-54.8336) scale(11.9637 11.301)">
<stop offset="0.0760668" />
<stop offset="0.380208" stop-color="#42D2FF" />
<stop offset="0.666667" stop-color="#939393" />
<stop offset="1" />
</radialGradient>
<radialGradient id="paint1_radial_9681_449677" cx="0" cy="0" r="1" gradientUnits="userSpaceOnUse" gradientTransform="translate(5.75919 5.03603) rotate(67.7809) scale(6.03615 6.01449)">
<stop offset="0.0760668" />
<stop offset="0.380208" stop-color="#42D2FF" />
<stop offset="0.666667" stop-color="#939393" />
<stop offset="1" />
</radialGradient>
<clipPath id="clip0_9681_449677">
<rect width="11.0676" height="11.0676" fill="white" transform="translate(1.10938 12.5332) rotate(-90)" />
</clipPath>
</defs>
</svg>