<?xml version='1.0' encoding='utf-8'?>
<svg width="14" height="14" viewBox="0 0 14 14" fill="none">
<g clip-path="url(#clip0_9681_449807)">
<path d="M11.8771 7.0026C11.8771 9.89318 9.53381 12.2365 6.64323 12.2365C3.75265 12.2365 1.40938 9.89318 1.40938 7.0026C1.40938 4.11203 3.75265 1.76875 6.64323 1.76875C9.53381 1.76875 11.8771 4.11203 11.8771 7.0026Z" stroke="url(#paint0_radial_9681_449807)" stroke-width="0.6" />
<path fill-rule="evenodd" clip-rule="evenodd" d="M7.36567 7.98547C7.37148 7.8859 7.37643 7.7849 7.38048 7.68259C7.32191 7.71658 7.26279 7.75043 7.20317 7.78412C7.1642 7.80614 7.12529 7.82794 7.08644 7.84951C7.18041 7.89641 7.27354 7.94174 7.36567 7.98547ZM7.72082 8.58459C7.56142 10.2466 7.15872 11.4264 6.68712 11.4264C6.36221 11.4264 6.07001 10.8664 5.86753 9.97455C5.70216 9.9304 5.58035 9.77955 5.58035 9.60026C5.58035 9.47169 5.64299 9.35775 5.73942 9.28729C5.7047 9.05768 5.67505 8.81444 5.65108 8.56005C4.18931 9.19239 3.02945 9.39677 2.80438 8.99846C2.58214 8.60516 3.33354 7.7343 4.60011 6.82104C4.52552 6.76725 4.45272 6.71361 4.3818 6.66021C4.35777 6.66488 4.33295 6.66732 4.30756 6.66732C4.09835 6.66732 3.92787 6.50146 3.92044 6.29406C3.07729 5.58586 2.6257 4.96015 2.80453 4.64367C3.03146 4.24209 4.2086 4.45316 5.68736 5.09782C5.8652 3.6044 6.24603 2.57227 6.68712 2.57227C7.1258 2.57227 7.50488 3.59316 7.68395 5.07341C8.12282 4.88428 8.53415 4.73392 8.90073 4.62708L8.90066 4.61979C8.90066 4.40585 9.07409 4.23242 9.28803 4.23242C9.44587 4.23242 9.58166 4.32682 9.64202 4.46224C10.095 4.40135 10.4072 4.45543 10.513 4.64261C10.7353 5.03606 9.98328 5.90743 8.71585 6.82107C9.98334 7.73476 10.7354 8.60618 10.5131 8.99963C10.2908 9.39298 9.15688 9.19854 7.72082 8.58459ZM6.25241 9.86295C6.31615 9.79391 6.35509 9.70163 6.35509 9.60026C6.35509 9.44771 6.26691 9.31576 6.13874 9.25259C6.09742 8.98352 6.06313 8.69328 6.03714 8.38629C6.24003 8.2915 6.44739 8.18926 6.65767 8.07997C6.88755 8.19949 7.11394 8.3106 7.33483 8.41275C7.28103 9.03484 7.19306 9.58719 7.08167 10.0328C6.98576 10.4164 6.87792 10.6985 6.77358 10.875C6.73727 10.9364 6.70809 10.9746 6.68712 10.9979C6.66615 10.9746 6.63697 10.9364 6.60066 10.875C6.49632 10.6985 6.38848 10.4164 6.29257 10.0328C6.27882 9.97776 6.26543 9.92113 6.25241 9.86295ZM4.9481 6.57792C4.85618 6.51307 4.76699 6.44847 4.68071 6.3843C4.68998 6.3511 4.69493 6.3161 4.69493 6.27995C4.69493 6.06601 4.5215 5.89258 4.30756 5.89258C4.24011 5.89258 4.17668 5.90982 4.12145 5.94013C4.01471 5.84898 3.9153 5.75968 3.82378 5.67281C3.53697 5.40058 3.34444 5.16792 3.24208 4.99023C3.20647 4.9284 3.18763 4.88423 3.17765 4.85451C3.20826 4.84773 3.25582 4.84107 3.32715 4.83969C3.53218 4.83569 3.83082 4.88058 4.21199 4.98581C4.62784 5.10062 5.11555 5.27977 5.64401 5.51592C5.62556 5.72351 5.61087 5.93824 5.60027 6.15879C5.37289 6.29756 5.15496 6.43778 4.9481 6.57792ZM9.13632 4.97632C9.18291 4.99618 9.23419 5.00716 9.28803 5.00716C9.40338 5.00716 9.50695 4.95674 9.57792 4.87674C9.74156 4.84857 9.87963 4.83646 9.99038 4.83862C10.0617 4.84001 10.1093 4.84667 10.1399 4.85345C10.1299 4.88317 10.1111 4.92734 10.0754 4.98917C9.97308 5.16686 9.78055 5.39952 9.49374 5.67174C9.19565 5.95467 8.8139 6.26333 8.3678 6.57797C8.17922 6.45025 7.98144 6.32245 7.7757 6.19576C7.76458 5.95323 7.74852 5.71761 7.72796 5.49063C8.23548 5.26642 8.704 5.09559 9.10554 4.98474L9.13632 4.97632ZM6.22894 7.84944C6.1544 7.88663 6.08039 7.92282 6.00699 7.95802C6.0025 7.87865 5.99855 7.79839 5.99517 7.71729C6.03465 7.74 6.07437 7.76265 6.11431 7.78522C6.15258 7.80684 6.19079 7.82825 6.22894 7.84944ZM5.58666 7.475C5.59271 7.70159 5.60304 7.92305 5.61731 8.1381C5.09906 8.36839 4.62072 8.54346 4.21185 8.65634C3.83067 8.76157 3.53203 8.80645 3.32701 8.80245C3.25567 8.80106 3.20811 8.79441 3.17751 8.78762C3.18749 8.7579 3.20632 8.71373 3.24194 8.65191C3.3443 8.47422 3.53683 8.24156 3.82365 7.96934C4.1214 7.68672 4.50263 7.37843 4.94809 7.06416C5.15082 7.20151 5.36419 7.33894 5.58666 7.475ZM5.98208 7.24632C6.08969 7.31026 6.19942 7.37387 6.3111 7.43698C6.42735 7.50267 6.54297 7.56626 6.65771 7.62771C6.77313 7.56592 6.88944 7.50195 7.00639 7.43587C7.13793 7.36154 7.26676 7.28652 7.39262 7.21108C7.39346 7.14098 7.39389 7.07038 7.39389 6.99935C7.39389 6.80468 7.39068 6.61336 7.38449 6.42617C7.26125 6.3524 7.13518 6.27903 7.00652 6.20633C6.88953 6.14022 6.77318 6.07623 6.65772 6.01441C6.54294 6.07588 6.42728 6.1395 6.31099 6.20521C6.20243 6.26656 6.0957 6.32838 5.99097 6.39051C5.98398 6.58904 5.98035 6.7923 5.98035 6.99935C5.98035 7.0823 5.98093 7.16465 5.98208 7.24632ZM7.08646 5.79262C7.12535 5.81422 7.1643 5.83604 7.20331 5.85808C7.25654 5.88816 7.30937 5.91837 7.36178 5.94869C7.35585 5.85377 7.34915 5.7602 7.3417 5.66809C7.25741 5.70828 7.17229 5.7498 7.08646 5.79262ZM7.79101 6.67745C7.7927 6.7718 7.79366 6.86697 7.79385 6.96287C7.86783 6.91562 7.94055 6.86834 8.01194 6.82107C7.93963 6.77319 7.86597 6.7253 7.79101 6.67745ZM8.3678 7.06416C8.18313 7.18923 7.98965 7.31437 7.78851 7.43847C7.7824 7.68676 7.77116 7.92903 7.75522 8.16355C8.25229 8.38188 8.71127 8.54861 9.10563 8.65749C9.4868 8.76272 9.78544 8.80761 9.99047 8.80362C10.0618 8.80223 10.1094 8.79558 10.14 8.78879C10.13 8.75907 10.1112 8.7149 10.0755 8.65307C9.97318 8.47538 9.78065 8.24272 9.49384 7.97049C9.19573 7.68753 8.81394 7.37884 8.3678 7.06416ZM6.65769 5.56216C6.45879 5.45879 6.26251 5.36171 6.07015 5.27129C6.12416 4.77699 6.20034 4.33486 6.29257 3.96594C6.38848 3.58231 6.49632 3.30024 6.60066 3.1237C6.63697 3.06228 6.66615 3.02415 6.68712 3.00084C6.70809 3.02415 6.73727 3.06228 6.77358 3.1237C6.87792 3.30024 6.98576 3.58231 7.08167 3.96594C7.17226 4.32832 7.24736 4.76131 7.30119 5.24502C7.09098 5.34284 6.87591 5.44871 6.65769 5.56216ZM6.03036 5.69532C6.09609 5.72698 6.16231 5.75943 6.22895 5.79268C6.19076 5.81389 6.15251 5.83532 6.11421 5.85696C6.08088 5.8758 6.0477 5.89468 6.01469 5.91361C6.01945 5.84001 6.02468 5.76723 6.03036 5.69532ZM5.30388 6.82105C5.39512 6.76062 5.48851 6.70017 5.58395 6.63982C5.58156 6.7584 5.58035 6.87831 5.58035 6.99935V7.00001C5.48617 6.94041 5.39397 6.88071 5.30388 6.82105ZM6.63956 7.33138C6.94519 7.33138 7.19295 7.08362 7.19295 6.778C7.19295 6.47237 6.94519 6.22461 6.63956 6.22461C6.33394 6.22461 6.08618 6.47237 6.08618 6.778C6.08618 7.08362 6.33394 7.33138 6.63956 7.33138Z" fill="url(#paint1_radial_9681_449807)" />
</g>
<defs>
<radialGradient id="paint0_radial_9681_449807" cx="0" cy="0" r="1" gradientUnits="userSpaceOnUse" gradientTransform="translate(2.22778 4.59444) rotate(35.1664) scale(11.9638 11.3011)">
<stop offset="0.0760668" />
<stop offset="0.380208" stop-color="#42D2FF" />
<stop offset="0.666667" stop-color="#939393" />
<stop offset="1" />
</radialGradient>
<radialGradient id="paint1_radial_9681_449807" cx="0" cy="0" r="1" gradientUnits="userSpaceOnUse" gradientTransform="translate(3.55243 5.07282) rotate(38.7009) scale(8.81635 8.63095)">
<stop offset="0.0760668" />
<stop offset="0.380208" stop-color="#42D2FF" />
<stop offset="0.666667" stop-color="#939393" />
<stop offset="1" />
</radialGradient>
<clipPath id="clip0_9681_449807">
<rect width="11.0677" height="11.0677" fill="white" transform="translate(1.10938 1.4668)" />
</clipPath>
</defs>
</svg>