<?xml version='1.0' encoding='utf-8'?>
<svg fill="none" height="13" viewBox="0 0 13 13" width="13">
<g clip-path="url(#clip0_11201_723717)">
<mask height="13" id="mask0_11201_723717" maskUnits="userSpaceOnUse" style="mask-type:luminance" width="13" x="0" y="0">
<path d="M13 0H0V13H13V0Z" fill="white" />
</mask>
<g mask="url(#mask0_11201_723717)">
<mask fill="white" id="path-2-inside-1_11201_723717">
<path d="M5.28674 5.30619H4.9834C4.9834 4.88151 5.12243 4.5251 5.40049 4.23694C5.67854 3.94876 6.04508 3.80469 6.50008 3.80469C6.95508 3.80469 7.32159 3.94876 7.59966 4.23694C7.87772 4.5251 8.01674 4.88151 8.01674 5.30619C8.01674 5.83196 7.84738 6.2364 7.50866 6.51951C7.23059 6.75206 6.89947 6.86835 6.51524 6.86835V8.23335H6.22708V6.59535C7.21797 6.59535 7.71341 6.16562 7.71341 5.30619C7.71341 4.96746 7.59966 4.68181 7.37216 4.44926C7.14972 4.21165 6.85902 4.09285 6.50008 4.09285C6.14113 4.09285 5.84791 4.21165 5.62041 4.44926C5.39797 4.68181 5.28674 4.96746 5.28674 5.30619ZM6.08299 8.96135C6.08299 8.88046 6.11079 8.81221 6.16641 8.7566C6.22202 8.70099 6.29027 8.67319 6.37116 8.67319C6.45204 8.67319 6.52029 8.70099 6.57592 8.7566C6.63152 8.81221 6.65933 8.88046 6.65933 8.96135C6.65933 9.04224 6.63152 9.11049 6.57592 9.1661C6.52029 9.22171 6.45204 9.24951 6.37116 9.24951C6.29027 9.24951 6.22202 9.22171 6.16641 9.1661C6.11079 9.11049 6.08299 9.04224 6.08299 8.96135Z" />
</mask>
<path d="M5.28674 5.30619H4.9834C4.9834 4.88151 5.12243 4.5251 5.40049 4.23694C5.67854 3.94876 6.04508 3.80469 6.50008 3.80469C6.95508 3.80469 7.32159 3.94876 7.59966 4.23694C7.87772 4.5251 8.01674 4.88151 8.01674 5.30619C8.01674 5.83196 7.84738 6.2364 7.50866 6.51951C7.23059 6.75206 6.89947 6.86835 6.51524 6.86835V8.23335H6.22708V6.59535C7.21797 6.59535 7.71341 6.16562 7.71341 5.30619C7.71341 4.96746 7.59966 4.68181 7.37216 4.44926C7.14972 4.21165 6.85902 4.09285 6.50008 4.09285C6.14113 4.09285 5.84791 4.21165 5.62041 4.44926C5.39797 4.68181 5.28674 4.96746 5.28674 5.30619ZM6.08299 8.96135C6.08299 8.88046 6.11079 8.81221 6.16641 8.7566C6.22202 8.70099 6.29027 8.67319 6.37116 8.67319C6.45204 8.67319 6.52029 8.70099 6.57592 8.7566C6.63152 8.81221 6.65933 8.88046 6.65933 8.96135C6.65933 9.04224 6.63152 9.11049 6.57592 9.1661C6.52029 9.22171 6.45204 9.24951 6.37116 9.24951C6.29027 9.24951 6.22202 9.22171 6.16641 9.1661C6.11079 9.11049 6.08299 9.04224 6.08299 8.96135Z" fill="#D9D9D9" />
<path d="M5.28674 5.30619V7.30619H7.28674V5.30619H5.28674ZM4.9834 5.30619H2.9834V7.30619H4.9834V5.30619ZM5.40049 4.23694L6.83972 5.62568L6.83976 5.62564L5.40049 4.23694ZM7.59966 4.23694L9.03889 2.84819L9.03889 2.84819L7.59966 4.23694ZM7.50866 6.51951L6.22604 4.98495L6.2256 4.98532L7.50866 6.51951ZM6.51524 6.86835V4.86835H4.51524V6.86835H6.51524ZM6.51524 8.23335V10.2333H8.51524V8.23335H6.51524ZM6.22708 8.23335H4.22708V10.2333H6.22708V8.23335ZM6.22708 6.59535V4.59535H4.22708V6.59535H6.22708ZM7.37216 4.44926L5.91214 5.81613L5.92715 5.83216L5.9425 5.84785L7.37216 4.44926ZM5.62041 4.44926L4.17581 3.06611L4.17514 3.0668L5.62041 4.44926ZM6.16641 8.7566L7.58042 10.171L7.58063 10.1708L6.16641 8.7566ZM6.57592 8.7566L7.99013 7.34239L7.98992 7.34218L6.57592 8.7566ZM6.57592 9.1661L7.98992 10.5805L7.99013 10.5803L6.57592 9.1661ZM6.16641 9.1661L7.58063 7.75189L7.58042 7.75168L6.16641 9.1661ZM5.28674 3.30619H4.9834V7.30619H5.28674V3.30619ZM6.9834 5.30619C6.9834 5.31521 6.9812 5.36958 6.95093 5.44719C6.91981 5.52697 6.87569 5.58841 6.83972 5.62568L3.96126 2.84819C3.30016 3.53332 2.9834 4.39801 2.9834 5.30619H6.9834ZM6.83976 5.62564C6.783 5.68447 6.70395 5.73937 6.61561 5.7741C6.53256 5.80675 6.48459 5.80469 6.50008 5.80469V1.80469C5.58325 1.80469 4.66896 2.11472 3.96122 2.84823L6.83976 5.62564ZM6.50008 5.80469C6.51556 5.80469 6.46759 5.80675 6.38453 5.7741C6.29618 5.73937 6.21716 5.68447 6.16044 5.62569L9.03889 2.84819C8.33117 2.11474 7.41694 1.80469 6.50008 1.80469V5.80469ZM6.16044 5.62568C6.12445 5.58839 6.08032 5.52694 6.0492 5.44715C6.01893 5.36954 6.01674 5.31518 6.01674 5.30619H10.0167C10.0167 4.39807 9.70003 3.53336 9.03889 2.84819L6.16044 5.62568ZM6.01674 5.30619C6.01674 5.35554 6.00891 5.31736 6.04493 5.23135C6.0848 5.13613 6.15144 5.0473 6.22604 4.98495L8.79129 8.05407C9.67261 7.31743 10.0167 6.29939 10.0167 5.30619H6.01674ZM6.2256 4.98532C6.26438 4.95288 6.32094 4.91804 6.38912 4.8941C6.45571 4.87072 6.50301 4.86835 6.51524 4.86835V8.86835C7.3382 8.86835 8.13122 8.6061 8.79173 8.0537L6.2256 4.98532ZM4.51524 6.86835V8.23335H8.51524V6.86835H4.51524ZM6.51524 6.23335H6.22708V10.2333H6.51524V6.23335ZM8.22708 8.23335V6.59535H4.22708V8.23335H8.22708ZM6.22708 8.59535C6.96654 8.59535 7.89457 8.44112 8.65228 7.78392C9.46441 7.07952 9.71341 6.12421 9.71341 5.30619H5.71341C5.71341 5.33356 5.70898 5.26893 5.75364 5.15272C5.80292 5.02451 5.89434 4.88105 6.03138 4.76218C6.29365 4.53471 6.4785 4.59535 6.22708 4.59535V8.59535ZM9.71341 5.30619C9.71341 4.46858 9.41135 3.67373 8.80183 3.05067L5.9425 5.84785C5.88221 5.78622 5.8166 5.69484 5.77001 5.57784C5.72404 5.46239 5.71341 5.36442 5.71341 5.30619H9.71341ZM8.83219 3.08239C8.19052 2.39699 7.34921 2.09285 6.50008 2.09285V6.09285C6.4569 6.09285 6.35739 6.08509 6.23068 6.03331C6.09961 5.97974 5.9904 5.89972 5.91214 5.81613L8.83219 3.08239ZM6.50008 2.09285C5.65075 2.09285 4.81707 2.39636 4.17581 3.06611L7.06502 5.83241C6.99136 5.90934 6.88767 5.98466 6.76199 6.03558C6.64005 6.08499 6.54361 6.09285 6.50008 6.09285V2.09285ZM4.17514 3.0668C3.57655 3.6926 3.28674 4.48227 3.28674 5.30619H7.28674C7.28674 5.35903 7.27732 5.45199 7.23385 5.56362C7.18966 5.6771 7.12644 5.76821 7.06569 5.83172L4.17514 3.0668ZM8.08299 8.96135C8.08299 9.15426 8.04887 9.37621 7.956 9.60414C7.86267 9.8332 7.72836 10.0231 7.58042 10.171L4.75241 7.34218C4.30969 7.78476 4.08299 8.36698 4.08299 8.96135H8.08299ZM7.58063 10.1708C7.43275 10.3187 7.24286 10.453 7.01386 10.5462C6.78598 10.6391 6.56408 10.6732 6.37116 10.6732V6.67319C5.77683 6.67319 5.19473 6.89986 4.7522 7.34239L7.58063 10.1708ZM6.37116 10.6732C6.17819 10.6732 5.95629 10.6391 5.72846 10.5462C5.49952 10.453 5.30971 10.3188 5.16191 10.171L7.98992 7.34218C7.54754 6.89993 6.96559 6.67319 6.37116 6.67319V10.6732ZM5.1617 10.1708C5.01382 10.0229 4.87956 9.83304 4.78627 9.60404C4.69344 9.37616 4.65933 9.15425 4.65933 8.96135H8.65933C8.65933 8.36703 8.43266 7.78492 7.99013 7.34239L5.1617 10.1708ZM4.65933 8.96135C4.65933 8.76845 4.69344 8.54654 4.78627 8.31866C4.87956 8.08966 5.01382 7.89977 5.1617 7.75189L7.99013 10.5803C8.43266 10.1378 8.65933 9.55567 8.65933 8.96135H4.65933ZM5.16191 7.75168C5.30971 7.60392 5.49952 7.46972 5.72846 7.37646C5.95629 7.28364 6.17819 7.24951 6.37116 7.24951V11.2495C6.96559 11.2495 7.54754 11.0228 7.98992 10.5805L5.16191 7.75168ZM6.37116 7.24951C6.56408 7.24951 6.78598 7.28362 7.01386 7.37646C7.24286 7.46975 7.43275 7.604 7.58063 7.75189L4.7522 10.5803C5.19473 11.0228 5.77683 11.2495 6.37116 11.2495V7.24951ZM7.58042 7.75168C7.72836 7.89957 7.86267 8.08949 7.956 8.31856C8.04887 8.54649 8.08299 8.76844 8.08299 8.96135H4.08299C4.08299 9.55572 4.30969 10.1379 4.75241 10.5805L7.58042 7.75168Z" fill="url(#paint0_radial_11201_723717)" mask="url(#path-2-inside-1_11201_723717)" />
<path d="M11.81 6.49571C11.81 3.564 9.4334 1.18738 6.50169 1.18738C3.56998 1.18738 1.19336 3.564 1.19336 6.49571C1.19336 9.42742 3.56998 11.804 6.50169 11.804C9.4334 11.804 11.81 9.42742 11.81 6.49571Z" stroke="url(#paint1_radial_11201_723717)" stroke-width="0.6" />
</g>
</g>
<defs>
<radialGradient cx="0" cy="0" gradientTransform="translate(5.28992 5.34239) rotate(51.6654) scale(4.32159 4.21827)" gradientUnits="userSpaceOnUse" id="paint0_radial_11201_723717" r="1">
<stop offset="0.0760668" />
<stop offset="0.380208" stop-color="#42D2FF" />
<stop offset="0.666667" stop-color="#939393" />
<stop offset="1" />
</radialGradient>
<radialGradient cx="0" cy="0" gradientTransform="translate(2.17974 4.13854) rotate(35.1664) scale(11.7104 11.0617)" gradientUnits="userSpaceOnUse" id="paint1_radial_11201_723717" r="1">
<stop offset="0.0760668" />
<stop offset="0.380208" stop-color="#42D2FF" />
<stop offset="0.666667" stop-color="#939393" />
<stop offset="1" />
</radialGradient>
<clipPath id="clip0_11201_723717">
<rect fill="white" height="13" width="13" />
</clipPath>
</defs>
</svg>