<?xml version='1.0' encoding='utf-8'?>
<svg width="24" height="25" viewBox="0 0 24 25" fill="none">
<path d="M9.75765 10.1868H9.19765C9.19765 9.40281 9.45432 8.74481 9.96765 8.21281C10.481 7.68081 11.1576 7.41481 11.9976 7.41481C12.8376 7.41481 13.5143 7.68081 14.0276 8.21281C14.541 8.74481 14.7976 9.40281 14.7976 10.1868C14.7976 11.1575 14.485 11.9041 13.8596 12.4268C13.3463 12.8561 12.735 13.0708 12.0256 13.0708V15.5908H11.4936V12.5668C13.323 12.5668 14.2376 11.7735 14.2376 10.1868C14.2376 9.56148 14.0276 9.03415 13.6076 8.60481C13.197 8.16615 12.6603 7.94681 11.9976 7.94681C11.335 7.94681 10.7936 8.16615 10.3736 8.60481C9.96298 9.03415 9.75765 9.56148 9.75765 10.1868ZM11.2276 16.9348C11.2276 16.7855 11.279 16.6595 11.3816 16.5568C11.4843 16.4541 11.6103 16.4028 11.7596 16.4028C11.909 16.4028 12.035 16.4541 12.1376 16.5568C12.2403 16.6595 12.2916 16.7855 12.2916 16.9348C12.2916 17.0841 12.2403 17.2101 12.1376 17.3128C12.035 17.4155 11.909 17.4668 11.7596 17.4668C11.6103 17.4668 11.4843 17.4155 11.3816 17.3128C11.279 17.2101 11.2276 17.0841 11.2276 16.9348Z" fill="url(#paint0_radial_2018_292374)" />
<rect x="2.2" y="2.58281" width="19.6" height="19.6" rx="9.8" stroke="url(#paint1_radial_2018_292374)" stroke-width="0.4" />
<defs>
<radialGradient id="paint0_radial_2018_292374" cx="0" cy="0" r="1" gradientUnits="userSpaceOnUse" gradientTransform="translate(4.02103 8.03112) rotate(35.1664) scale(21.6193 20.4217)">
<stop offset="0.0760668" />
<stop offset="0.380208" stop-color="#42D2FF" />
<stop offset="0.666667" stop-color="#939393" />
<stop offset="1" />
</radialGradient>
<radialGradient id="paint1_radial_2018_292374" cx="0" cy="0" r="1" gradientUnits="userSpaceOnUse" gradientTransform="translate(4.02103 8.03112) rotate(35.1664) scale(21.6193 20.4217)">
<stop offset="0.0760668" />
<stop offset="0.380208" stop-color="#42D2FF" />
<stop offset="0.666667" stop-color="#939393" />
<stop offset="1" />
</radialGradient>
</defs>
</svg>