<?xml version='1.0' encoding='utf-8'?>
<svg width="42" height="42" viewBox="0 0 42 42" fill="none">
<path fill-rule="evenodd" clip-rule="evenodd" d="M22.9149 10.3851C21.9168 8.81214 19.6107 8.84431 18.6568 10.4445L8.35801 27.7198C7.36456 29.3862 8.5653 31.4999 10.5054 31.4999H31.7673C33.7386 31.4999 34.9344 29.3248 33.8781 27.6604L22.9149 10.3851ZM17.7978 9.93239C19.1333 7.69219 22.3618 7.64716 23.7593 9.84923L34.7225 27.1245C36.2013 29.4548 34.5272 32.4999 31.7673 32.4999H10.5054C7.78927 32.4999 6.10824 29.5407 7.49906 27.2077L17.7978 9.93239ZM21.0001 16.2758C21.2763 16.2758 21.5001 16.4996 21.5001 16.7758V23.7758C21.5001 24.0519 21.2763 24.2758 21.0001 24.2758C20.724 24.2758 20.5001 24.0519 20.5001 23.7758V16.7758C20.5001 16.4996 20.724 16.2758 21.0001 16.2758ZM21.0001 26.2758C20.724 26.2758 20.5001 26.4996 20.5001 26.7758C20.5001 27.0519 20.724 27.2758 21.0001 27.2758H21.0101C21.2863 27.2758 21.5101 27.0519 21.5101 26.7758C21.5101 26.4996 21.2863 26.2758 21.0101 26.2758H21.0001Z" fill="url(#paint0_radial_11212_592070)" />
<defs>
<radialGradient id="paint0_radial_11212_592070" cx="0" cy="0" r="1" gradientUnits="userSpaceOnUse" gradientTransform="translate(9.85702 15.0803) rotate(31.1708) scale(29.1996 25.9437)">
<stop offset="0.0760668" />
<stop offset="0.380208" stop-color="#FF5050" />
<stop offset="0.666667" stop-color="#939393" />
<stop offset="1" />
</radialGradient>
</defs>
</svg>