<?xml version='1.0' encoding='utf-8'?>
<svg width="18" height="18" viewBox="0 0 18 18" fill="none">
<path fill-rule="evenodd" clip-rule="evenodd" d="M3.94461 3.63405C4.09301 3.48565 4.09301 3.24505 3.94461 3.09665C3.79622 2.94825 3.55561 2.94825 3.40721 3.09665L1.09763 5.40624C0.949228 5.55464 0.949228 5.79524 1.09763 5.94364L3.40721 8.25322C3.55561 8.40162 3.79622 8.40162 3.94461 8.25322C4.09301 8.10483 4.09301 7.86422 3.94461 7.71582L1.90373 5.67494L3.94461 3.63405ZM10.2534 4.90123L9.44988 4.90123C9.23941 4.90123 9.0688 4.73061 9.0688 4.52014C9.0688 4.30968 9.23941 4.13906 9.44988 4.13906L10.2534 4.13906L16.5007 4.13906C16.7111 4.13906 16.8817 4.30968 16.8817 4.52014C16.8817 4.73061 16.7111 4.90123 16.5007 4.90123L10.2534 4.90123ZM10.2534 7.21081L9.44988 7.21081C9.23941 7.21081 9.0688 7.0402 9.0688 6.82973C9.0688 6.61927 9.23941 6.44865 9.44988 6.44865L10.2534 6.44865L16.5007 6.44865C16.7111 6.44865 16.8817 6.61926 16.8817 6.82973C16.8817 7.0402 16.7111 7.21081 16.5007 7.21081L10.2534 7.21081ZM1.7475 12.0264C1.53703 12.0264 1.36642 12.197 1.36642 12.4075C1.36642 12.6179 1.53703 12.7886 1.7475 12.7886L11.2549 12.7886H16.5014C16.7119 12.7886 16.8825 12.6179 16.8825 12.4075C16.8825 12.197 16.7119 12.0264 16.5014 12.0264H11.2549L1.7475 12.0264ZM1.36642 15.1794C1.36642 14.969 1.53703 14.7983 1.7475 14.7983L11.2549 14.7983H16.5014C16.7119 14.7983 16.8825 14.969 16.8825 15.1794C16.8825 15.3899 16.7119 15.5605 16.5014 15.5605H11.2549L1.7475 15.5605C1.53703 15.5605 1.36642 15.3899 1.36642 15.1794Z" fill="#535353" />
</svg>