<?xml version='1.0' encoding='utf-8'?>
<svg width="33" height="14" viewBox="0 0 33 14" fill="none">
<path d="M0 2C0 0.89543 0.895431 0 2 0H16V14H2C0.895431 14 0 13.1046 0 12V2Z" fill="black" />
<path d="M6.65 11.496V12H5.404C4.09733 12 2.98667 11.58 2.072 10.74C1.064 9.816 0.56 8.60267 0.56 7.1C0.56 5.59733 1.064 4.384 2.072 3.46C2.98667 2.62 4.09733 2.2 5.404 2.2H6.664V2.704H5.516C4.37733 2.704 3.39733 3.06333 2.576 3.782C1.64267 4.594 1.176 5.7 1.176 7.1C1.176 8.5 1.64267 9.606 2.576 10.418C3.39733 11.1367 4.37733 11.496 5.516 11.496H6.65ZM9.484 12H8.896V5.112C8.896 4.17867 9.15733 3.432 9.68 2.872C10.212 2.312 10.9213 2.032 11.808 2.032C12.6947 2.032 13.4133 2.27 13.964 2.746C14.524 3.222 14.804 3.83333 14.804 4.58C14.804 5.84 14.2673 6.65667 13.194 7.03V7.058C13.7447 7.15133 14.1833 7.394 14.51 7.786C14.8367 8.178 15 8.68667 15 9.312V12H14.384V9.228C14.384 8.668 14.2067 8.22467 13.852 7.898C13.4507 7.534 12.8533 7.352 12.06 7.352H10.044V6.848H11.64C12.4707 6.848 13.11 6.64267 13.558 6.232C13.978 5.84933 14.188 5.31733 14.188 4.636C14.188 4.02 13.964 3.52067 13.516 3.138C13.0773 2.75533 12.508 2.564 11.808 2.564C11.0707 2.564 10.4967 2.79267 10.086 3.25C9.68467 3.70733 9.484 4.31867 9.484 5.084V12Z" fill="white" />
<path d="M17 0H31C32.1046 0 33 0.895431 33 2V12C33 13.1046 32.1046 14 31 14H17V0Z" fill="black" />
<path d="M19.396 2.2H19.984V9.088C19.984 9.788 20.18 10.3667 20.572 10.824C20.964 11.272 21.4773 11.496 22.112 11.496H23.974V12H21.916C21.2533 12 20.684 11.7573 20.208 11.272C19.6667 10.7307 19.396 10.012 19.396 9.116V2.2ZM26.4254 7.352V12H25.8374V5.084C25.8374 4.188 26.1081 3.46933 26.6494 2.928C27.1254 2.44267 27.6947 2.2 28.3574 2.2H30.4854V2.704H28.5534C27.9187 2.704 27.4054 2.93267 27.0134 3.39C26.6214 3.838 26.4254 4.412 26.4254 5.112V6.848H30.4854V7.352H26.4254Z" fill="white" />
</svg>