<?xml version='1.0' encoding='utf-8'?>
<svg width="16" height="16" viewBox="0 0 16 16" fill="none">
<path fill-rule="evenodd" clip-rule="evenodd" d="M3.3895 9.70052L6.2107 6.87932C6.32786 6.76216 6.32786 6.57221 6.2107 6.45506C6.09354 6.3379 5.90359 6.3379 5.78644 6.45506L2.4531 9.78839C2.33595 9.90555 2.33595 10.0955 2.4531 10.2127L5.78644 13.546C5.90359 13.6631 6.09354 13.6631 6.2107 13.546C6.32786 13.4288 6.32786 13.2389 6.2107 13.1217L3.3895 10.3005H10.6652C11.452 10.3005 12.2066 9.98796 12.763 9.4316C13.3193 8.87525 13.6319 8.12066 13.6319 7.33385V2.66719C13.6319 2.5015 13.4976 2.36719 13.3319 2.36719C13.1662 2.36719 13.0319 2.5015 13.0319 2.66719V7.33385C13.0319 7.96153 12.7826 8.5635 12.3387 9.00734C11.8949 9.45118 11.2929 9.70052 10.6652 9.70052H3.3895Z" fill="url(#paint0_radial_10160_348424)" />
<defs>
<radialGradient id="paint0_radial_10160_348424" cx="0" cy="0" r="1" gradientUnits="userSpaceOnUse" gradientTransform="translate(3.50375 5.54907) rotate(35.1664) scale(12.1789 11.5042)">
<stop offset="0.0760668" />
<stop offset="0.380208" stop-color="#FF5050" />
<stop offset="0.666667" stop-color="#939393" />
<stop offset="1" />
</radialGradient>
</defs>
</svg>