<?xml version='1.0' encoding='utf-8'?>
<svg width="19" height="19" viewBox="0 0 19 19" fill="none">
<path d="M15.9808 2.88281L10.3594 7.05795L11.3989 4.59468L15.9808 2.88281Z" fill="#E2761B" stroke="#E2761B" stroke-width="0.0564972" stroke-linecap="round" stroke-linejoin="round" />
<path d="M3.00728 2.88281L8.58355 7.0975L7.59485 4.59468L3.00728 2.88281ZM13.9621 12.5608L12.4649 14.8546L15.6683 15.7359L16.5892 12.6116L13.9621 12.5608ZM2.41406 12.6116L3.32932 15.7359L6.53271 14.8546L5.03553 12.5608L2.41406 12.6116Z" fill="#E4761B" stroke="#E4761B" stroke-width="0.0564972" stroke-linecap="round" stroke-linejoin="round" />
<path d="M6.35359 8.68387L5.46094 10.0342L8.64173 10.1754L8.52873 6.75732L6.35359 8.68387ZM12.6417 8.68387L10.4383 6.71777L10.3649 10.1754L13.54 10.0342L12.6417 8.68387ZM6.53438 14.8534L8.44399 13.9212L6.79427 12.633L6.53438 14.8534ZM10.5513 13.9212L12.4666 14.8534L12.2011 12.633L10.5513 13.9212Z" fill="#E4761B" stroke="#E4761B" stroke-width="0.0564972" stroke-linecap="round" stroke-linejoin="round" />
<path d="M12.4635 14.8541L10.5482 13.9219L10.7007 15.1705L10.6838 15.6959L12.4635 14.8541ZM6.53125 14.8541L8.31091 15.6959L8.29961 15.1705L8.44085 13.9219L6.53125 14.8541Z" fill="#D7C1B3" stroke="#D7C1B3" stroke-width="0.0564972" stroke-linecap="round" stroke-linejoin="round" />
<path d="M8.34322 11.8082L6.75 11.3393L7.87429 10.8252L8.34322 11.8082ZM10.654 11.8082L11.1229 10.8252L12.2528 11.3393L10.654 11.8082Z" fill="#233447" stroke="#233447" stroke-width="0.0564972" stroke-linecap="round" stroke-linejoin="round" />
<path d="M6.53624 14.8534L6.80742 12.5596L5.03906 12.6105L6.53624 14.8534ZM12.1973 12.5596L12.4684 14.8534L13.9656 12.6105L12.1973 12.5596ZM13.5419 10.0342L10.3667 10.1754L10.6605 11.8082L11.1295 10.8251L12.2594 11.3393L13.5419 10.0342ZM6.75093 11.3393L7.88087 10.8251L8.34415 11.8082L8.64358 10.1754L5.46279 10.0342L6.75093 11.3393Z" fill="#CD6116" stroke="#CD6116" stroke-width="0.0564972" stroke-linecap="round" stroke-linejoin="round" />
<path d="M5.46094 10.0342L6.79427 12.633L6.74907 11.3393L5.46094 10.0342ZM12.2575 11.3393L12.2011 12.633L13.54 10.0342L12.2575 11.3393ZM8.64173 10.1754L8.34229 11.8082L8.71517 13.7347L8.79992 11.198L8.64173 10.1754ZM10.3649 10.1754L10.2123 11.1924L10.2801 13.7347L10.6587 11.8082L10.3649 10.1754Z" fill="#E4751F" stroke="#E4751F" stroke-width="0.0564972" stroke-linecap="round" stroke-linejoin="round" />
<path d="M10.6596 11.8097L10.2811 13.7363L10.5523 13.9227L12.202 12.6346L12.2585 11.3408L10.6596 11.8097ZM6.75 11.3408L6.7952 12.6346L8.44492 13.9227L8.7161 13.7363L8.34322 11.8097L6.75 11.3408Z" fill="#F6851B" stroke="#F6851B" stroke-width="0.0564972" stroke-linecap="round" stroke-linejoin="round" />
<path d="M10.6838 15.6953L10.7007 15.1699L10.5595 15.0456H8.42955L8.29961 15.1699L8.31091 15.6953L6.53125 14.8535L7.15272 15.362L8.41261 16.2377H10.5764L11.842 15.362L12.4635 14.8535L10.6838 15.6953Z" fill="#C0AD9E" stroke="#C0AD9E" stroke-width="0.0564972" stroke-linecap="round" stroke-linejoin="round" />
<path d="M10.5533 13.9208L10.2821 13.7344H8.71712L8.44593 13.9208L8.30469 15.1694L8.43463 15.0451H10.5646L10.7058 15.1694L10.5533 13.9208Z" fill="#161616" stroke="#161616" stroke-width="0.0564972" stroke-linecap="round" stroke-linejoin="round" />
<path d="M16.2234 7.32914L16.7037 5.02406L15.9861 2.88281L10.5511 6.91671L12.6415 8.68507L15.5963 9.54948L16.2517 8.78677L15.9692 8.58338L16.4212 8.17095L16.0709 7.89976L16.5229 7.55513L16.2234 7.32914ZM2.29688 5.02406L2.7771 7.32914L2.47202 7.55513L2.92399 7.89976L2.57936 8.17095L3.03134 8.58338L2.74885 8.78677L3.39857 9.54948L6.35337 8.68507L8.44377 6.91671L3.00874 2.88281L2.29688 5.02406Z" fill="#763D16" stroke="#763D16" stroke-width="0.0564972" stroke-linecap="round" stroke-linejoin="round" />
<path d="M15.5949 9.54855L12.6401 8.68414L13.5384 10.0344L12.1994 12.6333L13.9621 12.6107H16.5892L15.5949 9.54855ZM6.35192 8.68414L3.39711 9.54855L2.41406 12.6107H5.03553L6.79259 12.6333L5.45926 10.0344L6.35192 8.68414ZM10.3632 10.1757L10.5497 6.91578L11.4084 4.59375H7.59485L8.44231 6.91578L8.64005 10.1757L8.70785 11.2039L8.7135 13.735H10.2785L10.2898 11.2039L10.3632 10.1757Z" fill="#F6851B" stroke="#F6851B" stroke-width="0.0564972" stroke-linecap="round" stroke-linejoin="round" />
</svg>