<?xml version='1.0' encoding='utf-8'?>
<svg width="25" height="25" viewBox="0 0 25 25" fill="none">
<path fill-rule="evenodd" clip-rule="evenodd" d="M9.45282 5.42157C10.203 4.67143 11.2204 4.25 12.2812 4.25C13.3421 4.25 14.3595 4.67143 15.1097 5.42157C15.8598 6.17172 16.2812 7.18913 16.2812 8.25V10.2338L15.1364 9.94729L15.1356 9.9471C13.2612 9.48118 11.3013 9.48118 9.42688 9.9471L9.4261 9.94729L8.28125 10.2338V8.25C8.28125 7.18913 8.70268 6.17172 9.45282 5.42157ZM7.28125 10.4841V8.25C7.28125 6.92392 7.80803 5.65215 8.74572 4.71447C9.6834 3.77678 10.9552 3.25 12.2812 3.25C13.6073 3.25 14.8791 3.77678 15.8168 4.71447C16.7545 5.65215 17.2812 6.92392 17.2812 8.25V10.4841L18.4026 10.7648L18.7812 10.8596V11.2498V18.7498V19.0588L18.5049 19.197L12.5049 22.197L12.2812 22.3088L12.0576 22.197L6.05764 19.197L5.78125 19.0588V18.7498V11.2498V10.8596L6.15985 10.7648L7.28125 10.4841ZM9.66812 10.9176L9.66852 10.9175C11.3843 10.491 13.1783 10.4911 14.894 10.9175L14.8944 10.9176L17.7812 11.6401V18.4408L12.2812 21.1908L6.78125 18.4408V11.6401L9.66812 10.9176Z" fill="#535353" />
</svg>